<?xml version="1.0" encoding="utf-8"?>
<!-- Generator: Adobe Illustrator 27.5.0, SVG Export Plug-In . SVG Version: 6.00 Build 0)  -->
<svg version="1.1" id="Слой_1" xmlns="http://www.w3.org/2000/svg" xmlns:xlink="http://www.w3.org/1999/xlink" x="0px" y="0px"
	 viewBox="0 0 3300 2000" style="enable-background:new 0 0 3300 2000;" xml:space="preserve">
<rect style="fill:#E3EAFF;" width="3300" height="2000"/>
<g>
	<path style="fill:#95A6DB;" d="M3206.98,1949.066H376.024c-9.995,0-18.096-8.103-18.096-18.096l0,0
		c0-9.996,8.102-18.098,18.096-18.098H3206.98c9.994,0,18.096,8.102,18.096,18.098l0,0
		C3225.076,1940.964,3216.975,1949.066,3206.98,1949.066z"/>
	<g>
		<rect x="2617.221" y="491.241" style="fill:#CFDAFF;" width="607.856" height="28.638"/>
		<rect x="2617.221" y="796.137" style="fill:#CFDAFF;" width="607.856" height="28.638"/>
		<rect x="2617.221" y="1101.033" style="fill:#CFDAFF;" width="607.856" height="813.019"/>
		<g>
			<path style="fill:#C4D2FF;" d="M3186.762,1879.341h-531.227v-733.802h531.227V1879.341z M2668.535,1866.341h505.227v-707.802
				h-505.227V1866.341z"/>
		</g>
		<rect x="3194.846" y="491.241" style="fill:#CFDAFF;" width="30.23" height="624.111"/>
		<rect x="2617.221" y="491.241" style="fill:#CFDAFF;" width="30.23" height="624.111"/>
		<rect x="2913.848" y="1158.539" style="fill:#C4D2FF;" width="14.601" height="707.802"/>
		
			<ellipse transform="matrix(0.1602 -0.9871 0.9871 0.1602 953.4487 4237.4629)" style="fill:#C4D2FF;" cx="2966.994" cy="1558.409" rx="19.074" ry="19.074"/>
		
			<ellipse transform="matrix(0.7071 -0.7071 0.7071 0.7071 -259.9188 2489.3186)" style="fill:#C4D2FF;" cx="2874.914" cy="1558.409" rx="19.074" ry="19.074"/>
		<path style="fill:#C4D2FF;" d="M3164.793,966.176h-34.008V952.7h1.981c2.616,0,4.756-2.141,4.756-4.757v-2.774
			c0-2.615-2.14-4.756-4.756-4.756h-26.951c-2.616,0-4.756,2.141-4.756,4.756v2.774c0,2.616,2.14,4.757,4.756,4.757h2.18v13.476
			h-25.365V952.7h1.981c2.616,0,4.756-2.141,4.756-4.757v-2.774c0-2.615-2.14-4.756-4.756-4.756h-26.951
			c-2.615,0-4.756,2.141-4.756,4.756v2.774c0,2.616,2.141,4.757,4.756,4.757h2.18v13.476h-25.365V952.7h1.982
			c2.615,0,4.756-2.141,4.756-4.757v-2.774c0-2.615-2.141-4.756-4.756-4.756h-26.951c-2.617,0-4.756,2.141-4.756,4.756v2.774
			c0,2.616,2.139,4.757,4.756,4.757h2.18v13.476h-39.039c-1.313,0-2.378,1.064-2.378,2.378c0,1.313,1.065,2.377,2.378,2.377h10.8
			v121.973h-6.341c-2.463,0-4.459,1.996-4.459,4.458s1.996,4.46,4.459,4.46h183.229c2.463,0,4.459-1.998,4.459-4.46
			s-1.996-4.458-4.459-4.458h-6.341V970.931h10.8c1.314,0,2.379-1.064,2.379-2.377
			C3167.172,967.24,3166.107,966.176,3164.793,966.176z M3149.832,1092.904h-162.225V970.931h24.078v102.552
			c0,6.293,5.102,11.395,11.395,11.395s11.395-5.102,11.395-11.395V970.931h25.365v102.552c0,6.293,5.103,11.395,11.396,11.395
			s11.395-5.102,11.395-11.395V970.931h25.365v102.552c0,6.293,5.103,11.395,11.396,11.395s11.395-5.102,11.395-11.395V970.931
			h19.047V1092.904z"/>
		<path style="fill:#B8C9FF;" d="M2872.576,660.491h-34.009v-13.476h1.981c2.616,0,4.756-2.141,4.756-4.756v-2.775
			c0-2.615-2.14-4.754-4.756-4.754h-26.951c-2.615,0-4.756,2.139-4.756,4.754v2.775c0,2.615,2.141,4.756,4.756,4.756h2.18v13.476
			h-25.365v-13.476h1.982c2.615,0,4.756-2.141,4.756-4.756v-2.775c0-2.615-2.141-4.754-4.756-4.754h-26.951
			c-2.616,0-4.756,2.139-4.756,4.754v2.775c0,2.615,2.14,4.756,4.756,4.756h2.18v13.476h-25.365v-13.476h1.981
			c2.616,0,4.757-2.141,4.757-4.756v-2.775c0-2.615-2.141-4.754-4.757-4.754h-26.95c-2.617,0-4.757,2.139-4.757,4.754v2.775
			c0,2.615,2.14,4.756,4.757,4.756h2.18v13.476h-39.039c-1.313,0-2.379,1.065-2.379,2.377c0,1.314,1.065,2.378,2.379,2.378h10.799
			v121.973h-6.342c-2.461,0-4.457,1.996-4.457,4.459c0,2.462,1.996,4.458,4.457,4.458h183.23c2.463,0,4.459-1.996,4.459-4.458
			c0-2.463-1.996-4.459-4.459-4.459h-6.342V665.247h10.801c1.313,0,2.378-1.064,2.378-2.378
			C2874.954,661.556,2873.889,660.491,2872.576,660.491z M2857.614,787.219h-162.224V665.247h24.078v102.553
			c0,6.292,5.102,11.394,11.395,11.394s11.395-5.102,11.395-11.394V665.247h25.365v102.553c0,6.292,5.102,11.394,11.395,11.394
			s11.395-5.102,11.395-11.394V665.247h25.365v102.553c0,6.292,5.103,11.394,11.396,11.394s11.395-5.102,11.395-11.394V665.247
			h19.047V787.219z"/>
		<path style="fill:#B8C9FF;" d="M3108.555,782.242l-43.845-72.713v-26.253c2.146,0,3.886-1.74,3.886-3.885v-0.671
			c0-2.146-1.739-3.886-3.886-3.886h-23.319c-2.146,0-3.886,1.739-3.886,3.886v0.671c0,2.145,1.739,3.885,3.886,3.885v26.253
			l-43.844,72.713c-3.689,6.118,0.748,13.895,7.928,13.895h47.576h47.574C3107.807,796.137,3112.244,788.359,3108.555,782.242z"/>
		<path style="fill:#C4D2FF;" d="M3040.99,781.791l-44.48-75.069v-56.538c2.178,0,3.943-1.765,3.943-3.942v-0.832
			c0-2.177-1.766-3.942-3.943-3.942h-23.656c-2.178,0-3.943,1.766-3.943,3.942v0.832c0,2.177,1.766,3.942,3.943,3.942v56.538
			l-44.48,75.069c-3.744,6.317,0.758,14.346,8.043,14.346h48.266h48.266C3040.232,796.137,3044.734,788.108,3040.99,781.791z"/>
		<path style="fill:#C4D2FF;" d="M3188.016,778.239l-48.981-93.652v-70.534c2.397,0,4.342-1.945,4.342-4.343v-2.191
			c0-2.398-1.944-4.342-4.342-4.342h-26.051c-2.397,0-4.342,1.944-4.342,4.342v2.191c0,2.398,1.944,4.343,4.342,4.343v70.534
			l-48.982,93.652c-4.121,7.881,0.837,17.898,8.858,17.898h53.149h53.149C3187.18,796.137,3192.137,786.12,3188.016,778.239z"/>
	</g>
	<g>
		<rect x="2068.921" y="769.475" style="fill:#CFDAFF;" width="554.642" height="22.847"/>
		<rect x="2068.921" y="1012.705" style="fill:#CFDAFF;" width="554.642" height="22.847"/>
		<rect x="2235.101" y="842.34" style="fill:#C2D1FF;" width="44.244" height="170.252"/>
		<rect x="2278.61" y="855.937" style="fill:#CFDBFF;" width="32.007" height="156.655"/>
		<rect x="2203.148" y="873.448" style="fill:#CFDBFF;" width="32.006" height="139.144"/>
		<rect x="2171.967" y="861.528" style="fill:#CFDBFF;" width="32.008" height="151.064"/>
		
			<rect x="2116.849" y="864.712" transform="matrix(0.8937 0.4486 -0.4486 0.8937 647.9057 -854.5538)" style="fill:#CFDBFF;" width="21.586" height="151.065"/>
		<g>
			<rect x="2103.86" y="623.998" style="fill:#C2D1FF;" width="37.843" height="145.619"/>
			<rect x="2141.075" y="635.628" style="fill:#C2D1FF;" width="27.376" height="133.99"/>
			
				<rect x="2310.285" y="623.998" transform="matrix(-1 -1.224647e-16 1.224647e-16 -1 4658.4121 1393.6161)" style="fill:#C2D1FF;" width="37.842" height="145.619"/>
			
				<rect x="2484.953" y="623.998" transform="matrix(-1 -1.224647e-16 1.224647e-16 -1 5007.749 1393.6161)" style="fill:#C2D1FF;" width="37.843" height="145.619"/>
			
				<rect x="2567.477" y="624.084" transform="matrix(-0.941 -0.3383 0.3383 -0.941 4771.9497 2225.4858)" style="fill:#C2D1FF;" width="24.873" height="145.619"/>
			
				<rect x="2419.307" y="657.69" transform="matrix(-1 -1.224647e-16 1.224647e-16 -1 4866.4121 1427.3075)" style="fill:#C2D1FF;" width="27.799" height="111.928"/>
			
				<rect x="2401.93" y="630.307" transform="matrix(-1 -1.224647e-16 1.224647e-16 -1 4821.3867 1399.9247)" style="fill:#CFDBFF;" width="17.527" height="139.311"/>
			
				<rect x="2283.537" y="635.628" transform="matrix(-1 -1.224647e-16 1.224647e-16 -1 4594.4502 1405.2455)" style="fill:#CFDBFF;" width="27.376" height="133.99"/>
			
				<rect x="2348.082" y="650.605" transform="matrix(-1 -1.224647e-16 1.224647e-16 -1 4723.5391 1420.2225)" style="fill:#CFDBFF;" width="27.375" height="119.013"/>
			
				<rect x="2374.75" y="640.41" transform="matrix(-1 -1.224647e-16 1.224647e-16 -1 4776.876 1410.0272)" style="fill:#CFDBFF;" width="27.376" height="129.208"/>
			
				<rect x="2447.063" y="608.506" transform="matrix(-1 -1.224647e-16 1.224647e-16 -1 4932.1865 1378.1239)" style="fill:#CFDBFF;" width="38.06" height="161.111"/>
			
				<rect x="2185.871" y="635.203" transform="matrix(0.9601 -0.2795 0.2795 0.9601 -108.7072 642.0446)" style="fill:#C2D1FF;" width="22.142" height="133.99"/>
		</g>
	</g>
	<g>
		<g>
			<g>
				
					<rect x="73.259" y="1020.492" transform="matrix(0.8442 -0.5361 0.5361 0.8442 -525.216 239.6042)" style="fill:#FFFFFF;" width="152.577" height="5.519"/>
				
					<rect x="94.801" y="1045.777" transform="matrix(0.8443 -0.5359 0.5359 0.8443 -535.5879 253.9018)" style="fill:#FFFFFF;" width="148.587" height="5.519"/>
				
					<rect x="123.896" y="1074.722" transform="matrix(0.8442 -0.5361 0.5361 0.8442 -548.9379 266.4615)" style="fill:#FFFFFF;" width="119.973" height="5.519"/>
				
					<rect x="166.825" y="1100.967" transform="matrix(0.8443 -0.5359 0.5359 0.8443 -560.0761 280.003)" style="fill:#FFFFFF;" width="69.878" height="5.519"/>
				
					<rect x="193.835" y="1155.956" transform="matrix(0.8442 -0.5361 0.5361 0.8442 -584.4316 306.8254)" style="fill:#FFFFFF;" width="83.463" height="5.52"/>
				
					<rect x="186.331" y="1183.05" transform="matrix(0.8442 -0.5361 0.5361 0.8442 -596.2729 320.2679)" style="fill:#FFFFFF;" width="132.879" height="5.519"/>
				
					<rect x="193.614" y="1210.188" transform="matrix(0.8442 -0.5361 0.5361 0.8442 -608.1509 333.6802)" style="fill:#FFFFFF;" width="152.577" height="5.52"/>
				
					<rect x="210.818" y="1237.281" transform="matrix(0.8442 -0.5361 0.5361 0.8442 -619.9897 347.1202)" style="fill:#FFFFFF;" width="152.577" height="5.52"/>
				
					<rect x="232.522" y="1264.374" transform="matrix(0.8442 -0.5361 0.5361 0.8442 -631.844 360.5758)" style="fill:#FFFFFF;" width="143.577" height="5.519"/>
				
					<rect x="269.418" y="1291.444" transform="matrix(0.8442 -0.5361 0.5361 0.8442 -643.6682 374.0347)" style="fill:#FFFFFF;" width="104.265" height="5.519"/>
				
					<rect x="320.845" y="1317.785" transform="matrix(0.8443 -0.5359 0.5359 0.8443 -654.823 387.5388)" style="fill:#FFFFFF;" width="37.189" height="5.519"/>
				
					<rect x="333.289" y="1344.881" transform="matrix(0.8443 -0.5359 0.5359 0.8443 -666.6936 401.006)" style="fill:#FFFFFF;" width="46.699" height="5.519"/>
				
					<rect x="320.124" y="1373.405" transform="matrix(0.8442 -0.5361 0.5361 0.8442 -679.7176 413.8832)" style="fill:#FFFFFF;" width="103.926" height="5.519"/>
				
					<rect x="320.41" y="1399.839" transform="matrix(0.8442 -0.5361 0.5361 0.8442 -691.0511 427.7887)" style="fill:#FFFFFF;" width="139.841" height="5.519"/>
				
					<rect x="331.245" y="1426.932" transform="matrix(0.8442 -0.5361 0.5361 0.8442 -702.8916 441.23)" style="fill:#FFFFFF;" width="152.578" height="5.519"/>
			</g>
			<g>
				<path style="fill:#3F964F;" d="M203.16,1118.09c-99.209-7.35-116.482-72.783-117.376-75.328
					c-0.334-4.678-4.397-8.199-9.075-7.865c-4.677,0.334-8.198,4.399-7.863,9.076c0.065,0.926,0.284,1.834,0.644,2.69
					c0.806,3.202,20.137,80.073,132.208,88.276c79.039,5.867,109.688,15.111,136.388,57.699l2.481,3.957
					c26.654,42.516,21.452,74.338-7.489,147.9c-41.228,104.314,19.207,155.314,21.856,157.463c2.785,2.227,6.665,2.477,9.712,0.625
					c0.784-0.498,1.472-1.134,2.031-1.876c2.83-3.575,2.331-8.748-1.132-11.716c-0.361-0.575-53.74-45.277-16.709-138.543
					c28.546-72.111,38.419-111.672,6.262-162.963l-2.481-3.959C320.82,1132.012,280.551,1123.887,203.16,1118.09z"/>
				<path style="fill:#3F964F;" d="M229.97,1117.217c41.3-104.359-19.252-155.387-21.855-157.463
					c-2.959-3.637-8.308-4.187-11.945-1.229c-3.638,2.96-4.188,8.308-1.229,11.945c0.713,0.875,1.593,1.601,2.589,2.132
					c2.207,1.922,53.462,45.952,16.709,138.542c-28.501,72.184-38.445,111.79-6.288,163.081l2.48,3.957
					c32.158,51.293,72.138,59.598,149.484,65.322c99.066,7.438,116.392,72.639,117.422,75.4c1.163,4.41,5.601,7.113,10.053,6.123
					c0.911-0.18,1.783-0.521,2.573-1.011c2.995-1.937,4.46-5.538,3.668-9.015c-0.778-3.32-20.137-80.072-132.208-88.277
					c-79.083-5.938-109.732-15.182-136.388-57.697l-2.48-3.957C195.638,1222.619,200.814,1190.913,229.97,1117.217z"/>
			</g>
		</g>
		<path style="fill:#78A5FF;" d="M2030.564,376.203v764.989c0,33.3-27,60.3-60.31,60.3H336.905c-33.31,0-60.31-27-60.31-60.3
			V376.203c0-33.301,27-60.301,60.31-60.301h1633.35C2003.564,315.902,2030.564,342.902,2030.564,376.203z"/>
		<g>
			<path style="fill:#9CC2FF;" d="M1729.691,965.882h-37.512v-68.224c0-10.358,8.398-18.756,18.757-18.756l0,0
				c10.358,0,18.755,8.398,18.755,18.756V965.882z"/>
			<path style="fill:#9CC2FF;" d="M1832.346,965.882h-37.512V856.309c0-10.359,8.396-18.755,18.756-18.755l0,0
				c10.358,0,18.756,8.396,18.756,18.755V965.882z"/>
			<path style="fill:#9CC2FF;" d="M1782.24,965.882h-37.511V813.743c0-10.358,8.397-18.755,18.755-18.755l0,0
				c10.359,0,18.756,8.397,18.756,18.755V965.882z"/>
			<path style="fill:#9CC2FF;" d="M1890.951,965.882h-37.141V763.865c0-10.256,8.314-18.57,18.57-18.57l0,0
				c10.256,0,18.57,8.314,18.57,18.57V965.882z"/>
			<path style="fill:#9CC2FF;" d="M1953.977,965.882h-37.141V711.377c0-10.255,8.314-18.57,18.57-18.57l0,0
				c10.256,0,18.57,8.314,18.57,18.57V965.882z"/>
			<g>
				<g>
					<path style="fill:#9CC2FF;" d="M1675.047,823.629c-1.726,0-3.438-0.74-4.625-2.172c-2.115-2.552-1.762-6.336,0.791-8.452
						l85.188-70.601c2.197-1.821,5.373-1.843,7.596-0.053l37.617,30.304l100.803-110.3c2.237-2.447,6.034-2.618,8.48-0.381
						c2.447,2.236,2.619,6.033,0.383,8.48l-104.608,114.462c-2.138,2.341-5.728,2.614-8.196,0.625l-38.19-30.764l-81.411,67.471
						C1677.754,823.177,1676.396,823.629,1675.047,823.629z"/>
				</g>
				<g>
					<g>
						<polygon style="fill:#9CC2FF;" points="1911.883,693.846 1901.846,671.879 1879.066,663.854 1931.021,639.954 						"/>
					</g>
				</g>
			</g>
		</g>
		<g>
			<path style="fill:#FFFFFF;" d="M1479.818,747.368H892.446c-12.31,0-22.288-9.979-22.288-22.288V392.663
				c0-12.309,9.979-22.288,22.288-22.288h587.372c12.31,0,22.289,9.979,22.289,22.288V725.08
				C1502.106,737.39,1492.127,747.368,1479.818,747.368z"/>
			<g>
				<path style="fill:#9CC2FF;" d="M1476.577,753.474h-61.365c-4.424,0-8.009-2.733-8.009-6.105c0-3.372,3.585-6.105,8.009-6.105
					h61.365c4.417,0,8.053,2.726,8.062,6.092c0.01,3.367-3.506,6.104-7.922,6.118
					C1476.705,753.474,1476.589,753.474,1476.577,753.474z M1353.846,753.474h-61.366c-4.423,0-8.009-2.733-8.009-6.105
					c0-3.372,3.586-6.105,8.009-6.105h61.366c4.423,0,8.009,2.733,8.009,6.105C1361.855,750.741,1358.27,753.474,1353.846,753.474z
					 M1231.115,753.474h-61.366c-4.423,0-8.009-2.733-8.009-6.105c0-3.372,3.585-6.105,8.009-6.105h61.366
					c4.423,0,8.009,2.733,8.009,6.105C1239.124,750.741,1235.538,753.474,1231.115,753.474z M1108.383,753.474h-61.366
					c-4.423,0-8.009-2.733-8.009-6.105c0-3.372,3.586-6.105,8.009-6.105h61.366c4.424,0,8.009,2.733,8.009,6.105
					C1116.392,750.741,1112.807,753.474,1108.383,753.474z M985.652,753.474h-61.366c-4.423,0-8.009-2.733-8.009-6.105
					c0-3.372,3.586-6.105,8.009-6.105h61.366c4.423,0,8.009,2.733,8.009,6.105C993.661,750.741,990.075,753.474,985.652,753.474z
					 M871.198,739.54c-3.458,0-6.647-1.72-7.677-4.376c-0.911-2.348-1.372-4.789-1.372-7.255v-41.174
					c0-3.371,3.586-6.105,8.009-6.105s8.009,2.734,8.009,6.105v41.174c0,1.294,0.241,2.57,0.715,3.794
					c1.254,3.234-1.168,6.63-5.411,7.585C872.714,739.459,871.949,739.54,871.198,739.54z M1502.106,717.736
					c-4.423,0-8.009-2.734-8.009-6.105v-46.777c0-3.373,3.586-6.104,8.009-6.104c4.423,0,8.009,2.732,8.009,6.104v46.777
					C1510.116,715.002,1506.529,717.736,1502.106,717.736z M870.157,646.063c-4.423,0-8.009-2.733-8.009-6.105V593.18
					c0-3.372,3.586-6.105,8.009-6.105s8.009,2.733,8.009,6.105v46.777C878.167,643.33,874.58,646.063,870.157,646.063z
					 M1502.106,624.182c-4.423,0-8.009-2.733-8.009-6.105v-46.777c0-3.372,3.586-6.105,8.009-6.105c4.423,0,8.009,2.733,8.009,6.105
					v46.777C1510.116,621.448,1506.529,624.182,1502.106,624.182z M870.157,552.508c-4.423,0-8.009-2.733-8.009-6.104v-46.777
					c0-3.372,3.586-6.104,8.009-6.104s8.009,2.733,8.009,6.104v46.777C878.167,549.775,874.58,552.508,870.157,552.508z
					 M1502.106,530.627c-4.423,0-8.009-2.732-8.009-6.105v-46.777c0-3.371,3.586-6.104,8.009-6.104c4.423,0,8.009,2.733,8.009,6.104
					v46.777C1510.116,527.894,1506.529,530.627,1502.106,530.627z M870.157,458.955c-4.423,0-8.009-2.734-8.009-6.106v-46.777
					c0-3.371,3.586-6.104,8.009-6.104s8.009,2.733,8.009,6.104v46.777C878.167,456.221,874.58,458.955,870.157,458.955z
					 M1502.106,437.073c-4.423,0-8.009-2.733-8.009-6.105v-41.134c0-1.303-0.244-2.589-0.725-3.82
					c-1.263-3.231,1.15-6.631,5.389-7.594c4.239-0.962,8.7,0.877,9.962,4.108c0.924,2.364,1.392,4.823,1.393,7.306v41.134
					C1510.116,434.34,1506.529,437.073,1502.106,437.073z M1447.925,376.479h-61.366c-4.423,0-8.009-2.733-8.009-6.104
					c0-3.373,3.586-6.105,8.009-6.105h61.366c4.423,0,8.009,2.732,8.009,6.105C1455.934,373.746,1452.348,376.479,1447.925,376.479z
					 M1325.193,376.479h-61.366c-4.423,0-8.009-2.733-8.009-6.104c0-3.373,3.586-6.105,8.009-6.105h61.366
					c4.423,0,8.009,2.732,8.009,6.105C1333.202,373.746,1329.617,376.479,1325.193,376.479z M1202.462,376.479h-61.366
					c-4.423,0-8.009-2.733-8.009-6.104c0-3.373,3.585-6.105,8.009-6.105h61.366c4.423,0,8.009,2.732,8.009,6.105
					C1210.471,373.746,1206.885,376.479,1202.462,376.479z M1079.73,376.479h-61.366c-4.423,0-8.009-2.733-8.009-6.104
					c0-3.373,3.586-6.105,8.009-6.105h61.366c4.423,0,8.009,2.732,8.009,6.105C1087.74,373.746,1084.154,376.479,1079.73,376.479z
					 M956.999,376.479h-61.313c-4.424,0-8.036-2.733-8.036-6.104c0-3.373,3.56-6.105,7.983-6.105h61.366
					c4.423,0,8.009,2.732,8.009,6.105C965.008,373.746,961.422,376.479,956.999,376.479z"/>
			</g>
			<g>
				<g>
					<path style="fill:#3F964F;" d="M1024.423,505.917c0,0,42.359-49.348,44.898-49.346c0.001,0,38.717-0.075,51.956-0.096
						l28.344,49.084l-31.734,54.974c-0.429,0.742-0.429,1.659,0,2.402l33.697,58.374c0.429,0.744,1.223,1.202,2.083,1.202h63.283
						l30.274,52.431c0.429,0.745,1.223,1.203,2.082,1.203h67.407c0.859,0,1.653-0.458,2.082-1.203l30.274-52.431h62.474
						c0.859,0,1.653-0.458,2.082-1.202l33.697-58.374c0.429-0.744,0.429-1.66,0-2.402l-30.388-52.641l38.778-48.259
						c2.049-2.563,1.643-6.326-0.903-8.395c-1.072-0.855-2.398-1.319-3.751-1.319c-1.82,0-3.519,0.808-4.657,2.219l-39.228,48.819
						h-63.037c-0.859,0-1.653,0.457-2.082,1.201l-30.274,52.445h-58.336l-30.287-52.445c-0.43-0.744-1.223-1.201-2.082-1.201
						h-60.306l-30.749-53.249c-1.007-1.896-2.996-3.191-5.276-3.193l-59.731,0.098l-49.747,53.625
						c-1.365,1.619-1.759,3.88-1.024,5.894c0.359,0.982,0.969,1.854,1.765,2.522
						C1018.539,508.761,1022.312,508.427,1024.423,505.917z M1406.028,610.565h-55.624l-28.563-49.48l27.809-48.183h56.378
						l28.182,48.831L1406.028,610.565z M1226.638,615.381l28.182-48.831h55.623l28.563,49.479l-27.808,48.169h-56.377
						L1226.638,615.381z M1130.999,561.733l28.183-48.831h56.377l28.197,48.831l-28.197,48.831h-56.377L1130.999,561.733z"/>
					<path style="fill:#3F964F;" d="M1218.624,551.646c1.068-1.835,3.046-2.975,5.162-2.975c1.065,0,2.113,0.29,3.004,0.824
						c2.833,1.649,3.8,5.31,2.152,8.165l-25.512,43.929c-1.063,1.83-3.04,2.967-5.161,2.967c-1.058,0-2.1-0.282-3.008-0.814
						c-2.833-1.649-3.8-5.309-2.152-8.165L1218.624,551.646z"/>
					<path style="fill:#3F964F;" d="M1388.215,594.595l25.175-43.656c1.078-1.83,3.065-2.967,5.187-2.967
						c1.045,0,2.072,0.276,2.974,0.798c2.828,1.646,3.81,5.3,2.184,8.158l-25.172,43.65c-1.074,1.834-3.055,2.975-5.17,2.975
						c-1.047,0-2.079-0.275-2.993-0.8C1387.571,601.107,1386.589,597.453,1388.215,594.595z"/>
				</g>
				<g>
					<path style="fill:#3F964F;" d="M944.986,525.773v-23.08c0-2.651,2.198-4.848,4.849-4.848c2.65,0,4.848,2.197,4.848,4.848
						v36.722c0,3.296-1.939,4.978-4.978,4.978c-1.81,0-3.75-1.293-5.753-3.815l-19.007-23.986v22.952
						c0,2.65-2.198,4.849-4.849,4.849c-2.651,0-4.85-2.198-4.85-4.849v-36.722c0-2.78,1.746-4.977,4.785-4.977
						c2.263,0,3.556,0.839,5.818,3.684L944.986,525.773z"/>
					<path style="fill:#3F964F;" d="M993.151,502.693c0-2.651,2.263-4.848,5.172-4.848c2.909,0,5.172,2.197,5.172,4.848v36.851
						c0,2.65-2.263,4.849-5.172,4.849c-2.909,0-5.172-2.198-5.172-4.849v-14.028h-16.486v14.028c0,2.65-2.263,4.849-5.172,4.849
						c-2.909,0-5.172-2.198-5.172-4.849v-36.851c0-2.651,2.263-4.848,5.172-4.848c2.909,0,5.172,2.197,5.172,4.848v13.123h16.486
						V502.693z"/>
					<path style="fill:#3F964F;" d="M1030.103,542.02c5.24,1.185,8.173,5.178,8.173,10.481c0,4.055-1.373,7.237-4.18,9.607
						c-2.808,2.434-6.363,3.619-10.668,3.619c-4.929,0-8.734-1.185-11.354-3.619c-1.996-1.746-2.433-4.678-0.936-6.613
						c1.685-2.183,4.43-2.246,6.364-0.935c1.809,1.185,3.556,1.809,5.303,1.809c3.556,0,5.49-1.809,5.49-4.243
						c0-3.244-1.934-4.865-5.802-4.865c-2.994,0-5.178-1.56-5.178-4.617c0-3.057,2.121-4.617,4.866-4.617
						c2.495,0,4.429-1.622,4.429-4.43c0-2.059-1.248-3.681-3.993-3.681c-1.622,0-3.119,0.374-4.43,1.123
						c-2.246,1.311-4.991,0.936-6.301-1.248c-0.874-1.372-1.31-4.305,1.31-6.301c2.62-1.934,6.052-2.932,10.294-2.932
						c3.868,0,7.05,0.999,9.483,2.995c2.433,2.059,3.618,4.741,3.618,8.173C1036.591,536.779,1034.532,539.961,1030.103,542.02z"/>
				</g>
			</g>
		</g>
		<g>
			<path style="fill:#9CC2FF;" d="M680.591,780.462H326.263c-8.942,0-16.192-7.249-16.192-16.191V528.506
				c0-8.942,7.25-16.192,16.192-16.192h354.328c8.942,0,16.191,7.25,16.191,16.192v235.764
				C696.782,773.213,689.533,780.462,680.591,780.462z"/>
			<path style="fill:#78A5FF;" d="M621.884,602.903H348.642c-9.613,0-17.407-7.794-17.407-17.407v-5.653
				c0-9.613,7.794-17.406,17.407-17.406h273.242c9.613,0,17.406,7.793,17.406,17.406v5.653
				C639.29,595.109,631.497,602.903,621.884,602.903z"/>
			<path style="fill:#78A5FF;" d="M510.345,656.088H337.996c-3.734,0-6.761-3.026-6.761-6.76v-6.712
				c0-3.734,3.027-6.761,6.761-6.761h172.349c3.733,0,6.761,3.027,6.761,6.761v6.712
				C517.106,653.062,514.078,656.088,510.345,656.088z"/>
			<path style="fill:#78A5FF;" d="M458.143,737.583H336.946c-3.154,0-5.711-2.558-5.711-5.71v-8.813c0-3.154,2.557-5.71,5.711-5.71
				h121.197c3.154,0,5.71,2.557,5.71,5.71v8.813C463.853,735.025,461.297,737.583,458.143,737.583z"/>
			<path style="fill:#78A5FF;" d="M548.791,694.267H338.673c-4.107,0-7.438-3.331-7.438-7.438v-5.357
				c0-4.108,3.331-7.438,7.438-7.438h210.118c4.108,0,7.438,3.33,7.438,7.438v5.357
				C556.229,690.936,552.899,694.267,548.791,694.267z"/>
		</g>
		<g>
			<g>
				<path style="fill:#6397FF;" d="M690.641,560.33c-2.939,0-5.891-0.151-8.855-0.456c-46.621-4.795-80.648-46.624-75.853-93.246
					c0.835-8.119,8.095-14.024,16.213-13.189c8.119,0.835,14.024,8.095,13.189,16.214c-3.128,30.409,19.067,57.692,49.475,60.82
					c14.73,1.515,29.169-2.797,40.657-12.142c11.487-9.345,18.648-22.604,20.163-37.334c3.128-30.409-19.066-57.692-49.475-60.821
					c-10.981-1.128-21.913,0.996-31.613,6.144c-7.209,3.827-16.156,1.086-19.982-6.123c-3.827-7.209-1.085-16.157,6.124-19.983
					c14.894-7.906,31.663-11.17,48.495-9.439c46.621,4.796,80.648,46.626,75.854,93.247c-2.323,22.584-13.302,42.912-30.914,57.238
					C728.818,553.706,710.099,560.329,690.641,560.33z"/>
			</g>
			<path style="fill:#6397FF;" d="M717.296,475.326c0,14.808-12.005,26.813-26.813,26.813s-26.814-12.005-26.814-26.813
				c0-14.809,12.005-26.813,26.814-26.813S717.296,460.517,717.296,475.326z"/>
		</g>
		<g>
			<path style="fill:#6397FF;" d="M1288.772,1017.468h-242.843c-9.766,0-17.683-7.917-17.683-17.683V820.601
				c0-9.767,7.917-17.684,17.683-17.684h242.843c9.765,0,17.683,7.917,17.683,17.684v179.185
				C1306.455,1009.551,1298.537,1017.468,1288.772,1017.468z"/>
			<path style="fill:#9CC2FF;" d="M1192.709,1056.223H956.43c-9.502,0-17.205-7.703-17.205-17.205V864.676
				c0-9.502,7.703-17.205,17.205-17.205h236.279c9.502,0,17.205,7.703,17.205,17.205v174.342
				C1209.915,1048.52,1202.211,1056.223,1192.709,1056.223z"/>
			<path style="fill:#2C2858;" d="M970.076,890l-53.469-53.468H776.932c-1.944,0-3.52-1.577-3.52-3.52c0-1.944,1.576-3.52,3.52-3.52
				h142.59l55.531,55.53c1.375,1.375,1.375,3.603,0,4.978S971.451,891.375,970.076,890z"/>
			<path style="fill:#2C2858;" d="M867.437,818.921h-91.176c-1.944,0-3.52-1.576-3.52-3.52c0-1.944,1.576-3.52,3.52-3.52h91.176
				c1.944,0,3.52,1.576,3.52,3.52C870.957,817.346,869.381,818.921,867.437,818.921z"/>
			<path style="fill:#2C2858;" d="M932.173,1105.366l55.306-1.424l47.449-49.956c1.338-1.41,1.282-3.637-0.128-4.976
				c-0.705-0.669-1.614-0.989-2.514-0.967c-0.9,0.023-1.792,0.39-2.461,1.095l-45.44,47.842l-52.393,1.348
				c-1.943,0.051-3.478,1.667-3.428,3.609C928.614,1103.881,930.23,1105.416,932.173,1105.366z"/>
			<g>
				<path style="fill:#AA62CC;" d="M965.62,954.588c0,19.703,6.212,37.927,16.716,52.928l0.135-0.094
					C971.9,992.397,965.62,974.183,965.62,954.588z"/>
				<path style="fill:#AA62CC;" d="M1071.364,863.209c2.621,0.381,5.228,0.844,7.804,1.449
					C1076.607,864.059,1074.002,863.59,1071.364,863.209z"/>
				<path style="fill:#AA62CC;" d="M1028.345,1041.978c-0.5-0.171-1.019-0.294-1.516-0.472c2.46,0.885,4.963,1.664,7.516,2.34
					c-0.345-0.092-0.676-0.222-1.02-0.318C1031.645,1043.055,1029.986,1042.543,1028.345,1041.978z"/>
				<path style="fill:#AA62CC;" d="M1020.085,1038.682c-1.216-0.549-2.461-1.033-3.652-1.635c2.6,1.315,5.262,2.51,7.995,3.58
					c-0.408-0.16-0.793-0.371-1.198-0.537C1022.164,1039.65,1021.13,1039.159,1020.085,1038.682z"/>
				<path style="fill:#AA62CC;" d="M1092.098,868.695c3.017,1.195,5.982,2.533,8.87,4.047
					C1098.099,871.236,1095.135,869.899,1092.098,868.695z"/>
				<path style="fill:#0E6A41;" d="M1122.319,954.588h28.189c0-35.343-19.85-66.027-48.994-81.583l-13.25,24.878
					C1108.522,908.694,1122.319,930.022,1122.319,954.588z"/>
				<path style="fill:#AA62CC;" d="M1058.064,862.143c-51.055,0-92.444,41.389-92.444,92.444
					C965.62,903.875,1007.35,862.143,1058.064,862.143z"/>
				<path style="fill:#AA62CC;" d="M1082.035,865.395c2.568,0.69,5.105,1.491,7.608,2.401
					C1087.153,866.889,1084.619,866.088,1082.035,865.395z"/>
				<path style="fill:#AA62CC;" d="M1058.064,862.143c3.545,0,7.073,0.246,10.577,0.649
					C1065.165,862.396,1061.646,862.143,1058.064,862.143z"/>
				<path style="fill:#AA62CC;" d="M1015.032,1036.372c-3.11-1.636-6.134-3.436-9.043-5.417
					C1008.886,1032.933,1011.912,1034.726,1015.032,1036.372z"/>
				<path style="fill:#AA62CC;" d="M1005.446,1030.547c-2.565-1.775-5.028-3.703-7.41-5.738
					C1000.409,1026.84,1002.873,1028.762,1005.446,1030.547z"/>
				<path style="fill:#AA62CC;" d="M1058.064,1047.032c51.055,0,92.444-41.39,92.444-92.444
					C1150.508,1005.301,1108.777,1047.032,1058.064,1047.032z"/>
				<path style="fill:#AA62CC;" d="M1047.538,1046.391c3.459,0.393,6.961,0.642,10.526,0.642c-3.508,0-6.96-0.243-10.372-0.632
					C1047.641,1046.395,1047.589,1046.396,1047.538,1046.391z"/>
				<path style="fill:#AA62CC;" d="M1037.707,1044.666c-0.199-0.045-0.404-0.065-0.603-0.111c2.547,0.592,5.138,1.053,7.761,1.428
					c-0.22-0.031-0.435-0.086-0.654-0.119C1042.021,1045.527,1039.846,1045.154,1037.707,1044.666z"/>
				<path style="fill:#AA62CC;" d="M988.315,1015.135c-1.704-1.963-3.321-4.012-4.866-6.131
					C984.991,1011.115,986.603,1013.164,988.315,1015.135z"/>
				<path style="fill:#AA62CC;" d="M995.706,1022.691c-1.753-1.604-3.451-3.273-5.085-5.018
					C992.251,1019.414,993.948,1021.08,995.706,1022.691z"/>
				<path style="fill:#D48FFF;" d="M1089.643,867.796c0.819,0.298,1.647,0.579,2.455,0.899
					C1091.285,868.373,1090.463,868.094,1089.643,867.796z"/>
				<path style="fill:#D48FFF;" d="M1079.168,864.658c0.964,0.225,1.915,0.481,2.867,0.737
					C1081.08,865.138,1080.13,864.884,1079.168,864.658z"/>
				<path style="fill:#D48FFF;" d="M1101.521,872.995c-0.179-0.096-0.372-0.157-0.552-0.253c0.179,0.094,0.369,0.168,0.546,0.263
					L1101.521,872.995z"/>
				<path style="fill:#D48FFF;" d="M1068.641,862.793c0.918,0.104,1.813,0.284,2.723,0.416
					C1070.454,863.075,1069.556,862.898,1068.641,862.793z"/>
				<path style="fill:#D48FFF;" d="M1028.345,1041.978c1.641,0.565,3.3,1.077,4.979,1.55
					C1031.647,1043.061,1029.99,1042.537,1028.345,1041.978z"/>
				<path style="fill:#D48FFF;" d="M1058.064,1047.032c-3.489,0-6.946-0.245-10.372-0.632
					C1051.104,1046.789,1054.556,1047.032,1058.064,1047.032z"/>
				<path style="fill:#3F964F;" d="M1005.428,991.376c-38.574-54.294,24.163-125.227,82.837-93.493l13.25-24.878
					c-84.396-45.506-174.72,56.686-119.044,134.417L1005.428,991.376z"/>
				<path style="fill:#D48FFF;" d="M1020.085,1038.682c1.045,0.477,2.079,0.969,3.144,1.408
					C1022.165,1039.656,1021.132,1039.154,1020.085,1038.682z"/>
				<path style="fill:#D48FFF;" d="M1037.707,1044.666c2.139,0.488,4.314,0.861,6.505,1.197
					C1042.026,1045.529,1039.853,1045.151,1037.707,1044.666z"/>
				<path style="fill:#32186C;" d="M990.621,1017.674c-0.781-0.836-1.556-1.676-2.306-2.539
					C989.067,1016.001,989.84,1016.838,990.621,1017.674z"/>
				<path style="fill:#32186C;" d="M998.036,1024.809c-0.798-0.682-1.556-1.408-2.33-2.117
					C996.482,1023.401,997.238,1024.127,998.036,1024.809z"/>
				<path style="fill:#32186C;" d="M1005.99,1030.955c-0.187-0.129-0.358-0.279-0.544-0.408
					C1005.632,1030.676,1005.803,1030.826,1005.99,1030.955z"/>
				<path style="fill:#32186C;" d="M1047.538,1046.391c-0.901-0.102-1.779-0.279-2.672-0.408
					C1045.759,1046.111,1046.639,1046.287,1047.538,1046.391z"/>
				<path style="fill:#32186C;" d="M1016.433,1037.047c-0.461-0.234-0.943-0.434-1.401-0.675
					C1015.492,1036.613,1015.97,1036.813,1016.433,1037.047z"/>
				<path style="fill:#32186C;" d="M1037.104,1044.555c-0.928-0.215-1.842-0.465-2.76-0.709
					C1035.264,1044.09,1036.177,1044.34,1037.104,1044.555z"/>
				<path style="fill:#32186C;" d="M1026.829,1041.506c-0.803-0.289-1.609-0.57-2.401-0.879
					C1025.222,1040.938,1026.025,1041.216,1026.829,1041.506z"/>
				<path style="fill:#32186C;" d="M982.292,1007.547c0.358,0.512,0.789,0.953,1.156,1.457c-0.366-0.5-0.757-0.981-1.113-1.488
					L982.292,1007.547z"/>
				<path style="fill:#32186C;" d="M982.471,1007.422l-0.135,0.094c0.356,0.508,0.747,0.988,1.113,1.488
					c1.545,2.119,3.162,4.168,4.866,6.131c0.75,0.863,1.525,1.703,2.306,2.539c1.634,1.744,3.332,3.414,5.085,5.018
					c0.775,0.709,1.532,1.436,2.33,2.117c2.382,2.035,4.845,3.963,7.41,5.738c0.186,0.129,0.357,0.279,0.544,0.408
					c2.908,1.981,5.933,3.781,9.043,5.417c0.458,0.241,0.939,0.441,1.401,0.675c1.191,0.602,2.436,1.086,3.652,1.635
					C1004.955,1031.767,991.966,1020.916,982.471,1007.422z"/>
				<path style="fill:#32186C;" d="M1044.212,1045.863c0.219,0.033,0.434,0.088,0.654,0.119c0.894,0.129,1.771,0.307,2.672,0.408
					c0.051,0.006,0.103,0.004,0.154,0.01C1046.518,1046.266,1045.372,1046.041,1044.212,1045.863z"/>
				<path style="fill:#32186C;" d="M1023.229,1040.09c0.406,0.166,0.791,0.377,1.198,0.537c0.792,0.309,1.598,0.59,2.401,0.879
					c0.498,0.178,1.016,0.301,1.516,0.472C1026.623,1041.385,1024.905,1040.781,1023.229,1040.09z"/>
				<path style="fill:#32186C;" d="M1033.325,1043.527c0.344,0.097,0.675,0.227,1.02,0.318c0.917,0.244,1.832,0.494,2.76,0.709
					c0.198,0.047,0.404,0.067,0.603,0.111C1036.23,1044.328,1034.774,1043.938,1033.325,1043.527z"/>
				<path style="fill:#0C5C38;" d="M1150.508,954.588h-28.189c1.277,61.994-83.218,87.624-116.891,36.788l-22.958,16.046
					C1032.89,1081.027,1151.007,1043.705,1150.508,954.588z"/>
			</g>
		</g>
		<path style="fill:#6397FF;" d="M2030.564,376.203v157.02h-459.51c-17.32,0-31.35-14.031-31.35-31.351v-185.97h430.55
			C2003.564,315.902,2030.564,342.902,2030.564,376.203z"/>
		<g>
			<path style="fill:#9CC2FF;" d="M2143.248,232.221v250.775c0,17.316-14.03,31.346-31.346,31.346h-524.362
				c-17.316,0-31.346-14.03-31.346-31.346V232.221c0-17.316,14.03-31.355,31.346-31.355h524.362
				C2129.218,200.866,2143.248,214.905,2143.248,232.221z"/>
			<path style="fill:#78A5FF;" d="M2143.248,232.221v46.344h-587.053v-46.344c0-17.316,14.03-31.355,31.346-31.355h524.362
				C2129.218,200.866,2143.248,214.905,2143.248,232.221z"/>
			<circle style="fill:#E62552;" cx="1610.775" cy="242.024" r="25.099"/>
			<path style="fill:#9CC2FF;" d="M1707.138,242.024c0,13.862-11.237,25.099-25.099,25.099c-13.862,0-25.1-11.237-25.1-25.099
				c0-13.861,11.237-25.099,25.1-25.099C1695.9,216.925,1707.138,228.163,1707.138,242.024z"/>
			<path style="fill:#9CC2FF;" d="M1778.401,242.024c0,13.862-11.237,25.099-25.099,25.099c-13.862,0-25.1-11.237-25.1-25.099
				c0-13.861,11.237-25.099,25.1-25.099C1767.164,216.925,1778.401,228.163,1778.401,242.024z"/>
			<path style="fill:#E3EAFF;" d="M1706.359,444.362h-90.813c-7.969,0-14.428-6.46-14.428-14.428v-90.812
				c0-7.969,6.459-14.428,14.428-14.428h90.813c7.968,0,14.428,6.46,14.428,14.428v90.812
				C1720.787,437.902,1714.327,444.362,1706.359,444.362z"/>
			<path style="fill:#E3EAFF;" d="M1890.575,444.362h-90.812c-7.969,0-14.428-6.46-14.428-14.428v-90.812
				c0-7.969,6.459-14.428,14.428-14.428h90.812c7.968,0,14.429,6.46,14.429,14.428v90.812
				C1905.004,437.902,1898.543,444.362,1890.575,444.362z"/>
			<path style="fill:#E3EAFF;" d="M2074.791,444.362h-90.811c-7.969,0-14.428-6.46-14.428-14.428v-90.812
				c0-7.969,6.459-14.428,14.428-14.428h90.811c7.969,0,14.429,6.46,14.429,14.428v90.812
				C2089.22,437.902,2082.76,444.362,2074.791,444.362z"/>
		</g>
	</g>
	<g>
		<path style="fill:#CFDAFF;" d="M1574.371,1025.59l60.795-26.72c5.057,6.552,75.255,25.388,105.51,169.021
			c6.312,29.965-44.358,111.508-75.646,136.367c-31.286,24.858-48.295-29.426-48.295-29.426l43.922-101.795L1574.371,1025.59z"/>
		<path d="M1518.611,1842.371c-30.375,42.725-104.969,16.509-102.5,74.297c113.435-0.742,160.579,0,160.579,0
			c-0.149-13.272-2.392-44.775-5.008-57.108L1518.611,1842.371z"/>
		<path d="M1694.604,1842.371c-30.375,42.725-104.97,16.509-102.5,74.297c113.435-0.742,160.579,0,160.579,0
			c-0.149-13.272-2.393-44.775-5.008-57.108L1694.604,1842.371z"/>
		<g>
			<g>
				<polygon style="fill:#F37A50;" points="1581.109,999.7 1518.47,994.638 1512.422,932.981 1567.63,903.566 				"/>
				<path style="fill:#F37A50;" d="M1515.976,806.198c-33.254,0-58.675,30.509-64.619,63.226
					c-10.753,59.183,24.232,97.362,33.45,100.553c17.421,6.032,55.187-12.882,55.187-12.882s43.42-39.541,43.42-64.19
					C1583.415,859.651,1549.229,806.198,1515.976,806.198z"/>
			</g>
			<path style="fill:#2C2858;" d="M1618.274,862.93c15.594-23.954,4.294-39.632-16.896-47.731
				c-21.19-8.101-23.644-18.54-32.391-32.524c-8.297-13.264-46.716-27.406-64.348-6.798c-26.287,30.725-31.666,5.368-54.623,28.335
				c-20.708,20.719-15.693,45.788-6.715,57.372c8.728,11.262,29.6-8.893,28.155,5.912c-1.126,11.544,15.863,11.85,21.398,23.651
				c4.193,8.939,11.574,12.66,10.417,18.301c-2.252,10.98-10.684,27.114,11.609,42.587c12.707,8.82,19.939-4.01,34.139,4.438
				c26.97,16.046,36.475-3.25,51.209-19.118c14.734-15.867,33.622-14.98,18.321-41.617
				C1617.973,894.733,1606.716,880.684,1618.274,862.93z"/>
			<g>
				<path style="fill:#F37A50;" d="M1487.691,885.108c-5.885,8.51-5.01,19.312,1.954,24.128c6.964,4.816,17.38,1.821,23.265-6.688
					c5.885-8.509,5.01-19.312-1.954-24.128C1503.992,873.605,1493.576,876.599,1487.691,885.108z"/>
				<g>
					<path style="fill:#DE623C;" d="M1498.623,904.38c-0.336-0.053-0.665-0.184-0.961-0.396c-4.242-3.038-5.928-7.421-4.512-11.724
						c1.451-4.405,5.726-7.555,10.164-7.492c1.25,0.02,2.247,1.046,2.229,2.295c-0.018,1.25-1.046,2.248-2.295,2.229
						c-2.432-0.035-4.979,1.891-5.8,4.383c-0.789,2.395,0.224,4.75,2.85,6.631c1.016,0.728,1.249,2.141,0.521,3.157
						C1500.302,904.183,1499.441,904.51,1498.623,904.38z"/>
				</g>
			</g>
		</g>
		<path style="fill:#201D40;" d="M1650.178,1365.709c0,0,29.328,146.637,47.99,250.615c19.396,32.49,58.619,196.08,58.304,247.178
			l-84.728-6.076c0,0-51.518-151.476-64.224-199.777c-15.83-60.17-51.937-144.436-67.769-265.482l-3.821-33.843L1650.178,1365.709z"
			/>
		<path style="fill:#2C2858;" d="M1473.269,1404.085l104.614,4.216l-11.688,214.69c11.626,35.309,25.685,193.85,14.034,243.04
			l-87.604-6.257C1492.624,1859.773,1444.886,1548.338,1473.269,1404.085z"/>
		<g>
			<path style="fill:#FFFFFF;" d="M1476.786,987.526c0,0,144.129-2.943,162.155,14.024c67.132,63.189,16.479,262.251,80.918,564.033
				c-19.268-6.701-85.187-53.835-165.979-18.441c-53.784,23.561-90.597,33.131-138.316,16.137
				c-21.862-187.944,39.548-438.959,39.548-438.959L1476.786,987.526z"/>
		</g>
		<g>
			<g>
				<g>
					<g>
						<g>
							<path style="fill:#F37A50;" d="M1205.703,1045.933c9.316,0.568,20.836-4.036,24.425,4.315l18.386-8.964l1.113-11.088
								c-15.799-25.313-54.31-32.497-58.122-32.833c-9.906-0.869-14.506-1.892-15.279-0.567c-0.774,1.324-3.201,10.145,11.173,11.87
								c18.038,2.167,6.063,16.587-30.532,2.859c-9.163-3.437-26.408,1.024-20.17,7.72
								C1143.57,1026.625,1163.315,1043.348,1205.703,1045.933z"/>
						</g>
					</g>
				</g>
			</g>
			<path style="fill:#FFFFFF;" d="M1223.102,1050.344c4,27.793,48.222,154.563,85.073,170.777
				c21.128-15.725,27.161-51.246,21.128-76.161c-11.301-46.679-79.676-114.764-79.676-114.764L1223.102,1050.344z"/>
			<path style="fill:#FFFFFF;" d="M1477.58,987.685c0,0,40.77,16.61,19.441,69.932c-21.329,53.322-128.046,191.443-190.812,162.52
				C1268.811,1147.883,1445.832,985.463,1477.58,987.685z"/>
		</g>
		<path style="fill:#FFFFFF;" d="M1499.232,988.552c11.012-8.61,45.76-23.498,85.405-19.495c4.605,8.609,4.369,22.426,4.369,22.426
			L1499.232,988.552z"/>
	</g>
	<g>
		<path style="fill:#F37A50;" d="M860.323,883.008c-6.829,8.141-12.114,17.845-26.189,17.595c0,0-12.061,31.737-24.699,56.549
			c0,0-14.228-45.063-14.212-45.086c6.21-9.507,16.17-28.27,19.497-39.961c0.864-3.037,1.571-6.126,2.401-9.184
			c1.867-7.491,3.162-15.303,10.96-21.997c12.792-10.98,27.269-32.051,30.226-32.626c5.166-1.239,3.333,14.102-4.623,21.749
			c-12.708,12.213-8.283,17.588-8.283,17.588s13.39,3.176,15.846,9.453C862.362,859.939,868.305,873.492,860.323,883.008z"/>
		<path style="fill:#F37A50;" d="M646.023,1581.222l-71.743,2.673c0,0-13.452,56.309-17.253,104.64
			c-3.129,39.786,10.372,105.142,10.347,156.958c-0.005,9.58-6.695,24.664-7.829,31.917c-4.092,26.187,71.706,12.782,71.706,12.782
			c-4.711-2.392-24.846-29.135-25.503-38.322c-2.16-30.241,10.384-101.736,22.696-163.505
			C639.371,1633.54,646.023,1581.222,646.023,1581.222z"/>
		<path style="fill:#F37A50;" d="M441.583,1550.941c0,0-14.575,88.996-18.376,137.33c-3.129,39.783,5.81,98.326,5.786,150.142
			c-0.004,9.581-6.696,24.666-7.83,31.919c-4.091,26.185,11.302,7.076,18.564,14.338c7.263,7.262,17.686,2.773,17.686,2.773
			l39.206,0.811c0,0-1.45-2.109-9.831-5.298c-3.921-2.167-19.168-28.959-19.42-38.165c-2.985-108.715,91.616-283.928,91.616-283.928
			L441.583,1550.941z"/>
		<path style="fill:#18161A;" d="M464.131,1883.68c-14.897,1.354-24.737-8.4-36.554-16.004c0.536,8.899-0.076,12.483-0.063,21.375
			c6.224,4.156,10.487,9.186,12.728,12.233c1.294,1.76,3.269,2.863,5.444,3.033l34.007,2.651
			C479.693,1906.968,468.895,1883.246,464.131,1883.68z"/>
		<path style="fill:#E62552;" d="M485.961,1882.404c0,0-0.866,1.516-3.601,0.666c-8.185-2.547-18.335-10.771-29.21-18.432
			c-8.217-5.789-19.181-14.789-26.288-13.93c-5.119,0.617-13.472,13.121-12.123,25.075c0.569,5.038,2.068,8.854,7.037,14.755
			c4.97,5.901,7.95,25.566,7.95,25.566l5.819-0.181c0,0,0.005-34.714,18.303-26.755c13.21,5.747,16.172,20.293,27.908,17.457
			c9.587-3.09,21.061-9.11,19.138-16.023C499.809,1886.705,495.926,1885.438,485.961,1882.404z"/>
		<path style="fill:#18161A;" d="M602.514,1890.758c-14.897,1.354-24.737-8.4-36.554-16.004c0.538,8.897-0.076,12.484-0.063,21.374
			c6.224,4.156,10.487,9.185,12.73,12.233c1.294,1.76,3.267,2.863,5.442,3.033l37.019,2.197
			C621.087,1913.592,607.279,1890.324,602.514,1890.758z"/>
		<path style="fill:#E62552;" d="M638.85,1892.949c-6.408-2.137-7.9-2.941-7.9-2.941c-9.103,3.021-26.635-9.287-39.418-18.292
			c-8.215-5.788-19.495-14.982-26.602-14.123c-5.119,0.618-12.506,17.245-13.619,24.823c-0.738,5.016,1.093,10.226,3.924,17.196
			c4.253,10.468,9.315,23.899,9.315,23.899l5.817-0.184c0,0,0.005-34.715,18.305-26.754c13.21,5.748,14.922,16.887,31.467,17.131
			C637.763,1913.963,665.596,1901.865,638.85,1892.949z"/>
		<path style="fill:#F37A50;" d="M577.558,847.316c-9.512-19.024-23.28-26.323-23.28-26.323l-2.415-0.783L451.163,842.3
			c0,0,38.33,77.31,40.279,79.259c1.949,1.95,60.541,57.9,60.541,57.9s29.143,7.275,40.148-17.274
			C612.184,917.458,587.069,866.34,577.558,847.316z"/>
		<path style="fill:#CFDAFF;" d="M492.307,1080.459l-67.223,9.711c-2.328,5.816-31.447,106.199-24.467,128.307
			c6.981,22.106,55.36,72.033,83.284,83.668c27.924,11.635,29.087-31.414,29.087-31.414l-53.034-65.053L492.307,1080.459z"/>
		<path style="fill:#FFFFFF;" d="M708.985,1334.969c-13.172-81.664-34.879-120.928-34.879-120.928
			c-6.166-42.02-9.625-117.297-21.683-143.374l-77.344-75.387l-116.808,13.032c0,0,28.277,252.438,28.739,252.801
			c-41.164,71.213-58.027,143.09-73.076,185.816c-22.725,64.521-75.918,126.877-75.918,126.877
			c51.903-20.76,122.963,47.203,182.279,54.618c59.317,7.415,103.5-3.116,127.15-6.643c37.482-5.588,62.788,21.801,62.788,21.801
			C713.188,1638.529,728.452,1455.67,708.985,1334.969z"/>
		<path style="fill:#FFFFFF;" d="M801.088,878.87l-79.006,130.664c0,0-85.802-15.395-110.238-17.141
			c-33.393-2.386-40.176,4.987-40.176,4.987s6.757,98.726,60.315,101.324c-3.858-8.346,100.498-13.252,130.884-33.004
			c30.387-19.752,75.109-144.523,74.644-146.443C805.871,898.961,801.088,878.87,801.088,878.87z"/>
		<path style="fill:#062440;" d="M538.188,798.995c-28.8,5.379-68.428-26.606-108.585,6.716
			c-52.614,43.659-10.545,97.266-48.428,129.346c-32.472,27.497-154.217,79.565-79.179,143.883
			c-29.097,9.188-46.708,88.82,35.987,88.055c-6.891,23.736,39.816,76.568,113.323,16.846
			c39.051,58.191,105.666-26.034,104.135-81.93c-0.529-19.273-7.657-43.645-16.08-65.084
			c55.895,29.861,39.816-91.118,23.539-148.628C579.177,885.984,625.885,782.615,538.188,798.995z"/>
	</g>
	<path style="fill:#FFFFFF;" d="M113.064,1634.512c10.455-20.149,35.265-28.006,55.414-17.551
		c20.149,10.455,28.007,35.265,17.552,55.414c-10.456,20.148-35.265,28.006-55.414,17.551
		C110.467,1679.471,102.609,1654.661,113.064,1634.512z"/>
	<path style="fill:#FFFFFF;" d="M209.241,1582.735c5.791-11.161,19.534-15.515,30.695-9.722
		c11.161,5.791,15.514,19.533,9.722,30.694c-5.792,11.161-19.534,15.515-30.695,9.722
		C207.802,1607.639,203.449,1593.896,209.241,1582.735z"/>
	<path style="fill:#FFFFFF;" d="M2882.166,572.184c5.791-11.162,19.534-15.515,30.695-9.723c11.16,5.792,15.514,19.534,9.723,30.696
		c-5.792,11.161-19.535,15.513-30.695,9.721C2880.728,597.087,2876.375,583.345,2882.166,572.184z"/>
	<path style="fill:#FFFFFF;" d="M452.977,365.994c5.791-11.162,19.534-15.515,30.695-9.723c11.161,5.792,15.513,19.534,9.722,30.695
		c-5.791,11.16-19.534,15.514-30.695,9.722C451.538,390.897,447.185,377.154,452.977,365.994z"/>
	<path style="fill:#FFFFFF;" d="M184.718,663.547c5.791-11.162,19.534-15.515,30.695-9.723c11.161,5.792,15.514,19.534,9.722,30.695
		c-5.791,11.161-19.534,15.515-30.695,9.723C183.279,688.45,178.926,674.708,184.718,663.547z"/>
	<path style="fill:#FFFFFF;" d="M2538.034,268.079c5.791-11.162,19.534-15.514,30.694-9.722
		c11.162,5.791,15.514,19.534,9.723,30.694c-5.791,11.162-19.533,15.514-30.695,9.722
		C2536.596,292.982,2532.242,279.24,2538.034,268.079z"/>
	<path style="fill:#FFFFFF;" d="M266.496,779.54c-15.528,4.919-32.163-3.713-37.081-19.242
		c-4.919-15.529,3.713-32.163,19.241-37.081c15.528-4.919,32.163,3.713,37.081,19.242
		C290.656,757.987,282.024,774.622,266.496,779.54L266.496,779.54z M271.761,796.163c24.734-7.834,38.434-34.236,30.599-58.969
		c-7.834-24.734-34.235-38.434-58.969-30.6c-24.734,7.835-38.433,34.237-30.599,58.969
		C220.626,790.297,247.027,803.997,271.761,796.163L271.761,796.163z"/>
	<path style="fill:#FFFFFF;" d="M2128.615,1140.889c-10.155,3.215-21.033-2.43-24.25-12.584
		c-3.217-10.156,2.428-21.035,12.583-24.252c10.155-3.215,21.034,2.428,24.25,12.584
		C2144.415,1126.793,2138.77,1137.672,2128.615,1140.889L2128.615,1140.889z M2132.059,1151.758
		c16.175-5.123,25.135-22.389,20.011-38.564c-5.123-16.176-22.39-25.135-38.564-20.011c-16.175,5.122-25.134,22.39-20.012,38.563
		C2098.617,1147.922,2115.883,1156.882,2132.059,1151.758L2132.059,1151.758z"/>
	<path style="fill:#FFFFFF;" d="M1167.573,1649.264c-10.155,3.217-21.033-2.429-24.25-12.584
		c-3.217-10.154,2.428-21.033,12.583-24.25c10.155-3.217,21.034,2.428,24.25,12.584
		C1183.374,1635.168,1177.729,1646.047,1167.573,1649.264L1167.573,1649.264z M1171.017,1660.135
		c16.175-5.123,25.134-22.39,20.011-38.564c-5.123-16.176-22.389-25.135-38.564-20.012s-25.134,22.39-20.011,38.564
		C1137.576,1656.299,1154.841,1665.258,1171.017,1660.135L1171.017,1660.135z"/>
	<path style="fill:#FFFFFF;" d="M2489.866,406.367c-15.118,4.79-31.313-3.615-36.103-18.734
		c-4.789-15.118,3.615-31.315,18.733-36.103c15.118-4.789,31.314,3.616,36.103,18.734
		C2513.389,385.383,2504.985,401.579,2489.866,406.367L2489.866,406.367z M2494.992,422.552
		c24.082-7.627,37.42-33.333,29.793-57.414c-7.627-24.081-33.333-37.42-57.414-29.792c-24.082,7.627-37.42,33.332-29.792,57.413
		C2445.207,416.841,2470.911,430.179,2494.992,422.552L2494.992,422.552z"/>
	<path style="fill:#FFFFFF;" d="M2500.579,1258.273c-12.124,3.841-25.11-2.898-28.951-15.023
		c-3.84-12.124,2.899-25.11,15.022-28.951c12.123-3.84,25.111,2.899,28.951,15.022
		C2519.441,1241.447,2512.703,1254.434,2500.579,1258.273L2500.579,1258.273z M2504.689,1271.252
		c19.311-6.115,30.007-26.729,23.891-46.04c-6.117-19.31-26.729-30.007-46.04-23.89c-19.312,6.115-30.007,26.729-23.89,46.039
		C2464.766,1266.672,2485.379,1277.369,2504.689,1271.252L2504.689,1271.252z"/>
	<g>
		<g>
			<path style="fill:#CFDAFF;" d="M2593.615,1000.397c-29.233,9.982-124.762,181.699-124.762,181.699l73.617,4.834l78.848-79.906
				L2593.615,1000.397z"/>
			<path d="M2692.037,1849.934c-27.232,36.325-94.109,14.036-91.896,63.165c101.7-0.629,143.967,0,143.967,0
				c-0.135-11.283-2.145-38.067-4.49-48.552L2692.037,1849.934z"/>
			<path d="M2844.197,1850.887c-27.232,36.324-94.109,14.035-91.896,63.166c101.7-0.631,143.966,0,143.966,0
				c-0.133-11.284-2.145-38.068-4.489-48.553L2844.197,1850.887z"/>
			<path style="fill:#201D40;" d="M2633.551,1293.86c0,0-16.326,234.016-9.618,285.776c6.708,51.758,41.682,118.435,38.99,289.637
				c33.152,8.025,81.185,0,81.185,0s7.121-193.584-27.926-280.049c14.251-83.989,59.982-276.358,59.982-276.358L2633.551,1293.86z"
				/>
			<path style="fill:#2C2858;" d="M2734.412,1302.057c0,0,1.516,258.359,17.836,307.934c16.321,49.576,48.041,84.942,77.589,253.598
				c34.07,1.647,83.13,2.35,83.13,2.35s-17.449-216.762-70.511-265.414c-1.796-85.17,20.093-300.1,20.093-300.1L2734.412,1302.057z"
				/>
			<polygon style="fill:#95A6DB;" points="2652.568,965.073 2696.602,950.565 2742.912,952.733 2705.428,1014.441 			"/>
			<path style="fill:#F37A50;" d="M2668.326,993.829c21.785,10.854,49.115,8.042,68.34-9.514l-8.809-69.524l-64.561,9.526
				L2668.326,993.829z"/>
			<path style="fill:#95A6DB;" d="M2759.986,974.197L2759.986,974.197l-14.543-2.222l-2.531-19.241l-30.182,38.178l-10.064,4.055
				l-10.783-1.207l-39.314-28.687l2.723,19.216l-11.225,5.056l0,0l-40.856,16.589l48.896,236.66l1.512,78.631
				c60.592,5.83,124.726,1.407,184.666-21.301l-20.504-79.959l-8.756-240.231L2759.986,974.197z"/>
			<polygon style="fill:#E62552;" points="2694.686,1020.939 2701.855,1207.275 2720.56,1225.113 2737.123,1206.624 
				2708.94,1019.827 			"/>
			<polygon style="fill:#E62552;" points="2681.004,999.559 2697.533,994.028 2716.771,995.901 2708.995,1020.189 2694.71,1021.562 
							"/>
			<g>
				<path style="fill:#FFFFFF;" d="M2649.791,974.064l24.994,208.606l-2.762,288.404c0,0-7.92,20.182-41.943,0l-37.029-470.613
					L2649.791,974.064z"/>
				<polygon style="fill:#D4DEFF;" points="2650.572,971.745 2676.852,1197.11 2624.041,1025.887 				"/>
			</g>
			<g>
				<path style="fill:#FFFFFF;" d="M2744.393,954.656l42.875,518.82c0,0,96.951,21.613,125.699-2.402l-45.92-220.871
					l-60.705-296.061L2744.393,954.656z"/>
				<polygon style="fill:#D4DEFF;" points="2743.578,954.017 2763.107,1181.121 2782.467,998.441 				"/>
			</g>
			<g>
				<g>
					<path style="fill:#F37A50;" d="M2743.006,858.335c0.525,48.639-30.016,88.403-68.216,88.816
						c-38.2,0.413-69.595-38.681-70.121-87.319c-0.526-48.638,30.015-88.402,68.216-88.816
						C2711.085,770.603,2742.479,809.698,2743.006,858.335z"/>
					<path d="M2626.512,875.552c-3.44,1.952-7.812,0.744-9.764-2.697c-1.951-3.44-0.743-7.812,2.697-9.763
						c3.441-1.951,7.813-0.743,9.764,2.697C2631.16,869.229,2629.953,873.601,2626.512,875.552z"/>
					<path d="M2679.818,862.76c-1.057,3.829-5.018,6.075-8.847,5.018c-3.829-1.058-6.075-5.019-5.018-8.848
						c1.058-3.829,5.019-6.075,8.847-5.018C2678.63,854.97,2680.877,858.931,2679.818,862.76z"/>
					<path style="fill:#DE623C;" d="M2641.585,864.399c-2.396,12.531-5.616,27.935-5.616,27.935s7.814,9.207,21.906,3.918
						c-6.893-0.153-14.315-1.875-14.963-10.732C2642.264,876.663,2641.585,864.399,2641.585,864.399z"/>
					<g>
						<path style="fill:#2C2858;" d="M2686.415,848.951c-1.202,0.897-2.903,0.889-4.104-0.114
							c-0.283-0.232-7.232-5.825-13.188-1.425c-1.473,1.086-3.548,0.774-4.636-0.697c-1.088-1.473-0.766-3.557,0.697-4.637
							c8.133-6.006,17.538-1.535,21.375,1.668c1.406,1.173,1.594,3.264,0.421,4.669
							C2686.809,848.621,2686.619,848.8,2686.415,848.951z"/>
					</g>
					<g>
						<path style="fill:#2C2858;" d="M2609.15,865.247c1.473,0.285,3-0.463,3.646-1.89c0.153-0.33,3.979-8.389,11.254-7.02
							c1.8,0.339,3.533-0.844,3.871-2.643c0.34-1.799-0.857-3.536-2.644-3.872c-9.937-1.871-16.46,6.248-18.522,10.801
							c-0.754,1.668-0.015,3.632,1.653,4.387C2608.651,865.121,2608.9,865.198,2609.15,865.247z"/>
					</g>
					<path style="fill:#2C2858;" d="M2736.291,861.863c-5.851-16.662-19.121-8.029-28.383-29.459
						c-9.264-21.432-17.207-37.362-36.782-26.418c-19.575,10.944-26.294,7.776-36.444,5.796
						c-30.523-5.954-29.974,43.598-29.974,43.598s-28.724-33.336-12.749-58.808c17.709-28.238,28.098-14.01,45.66-35.608
						c17.563-21.6,53.024-23.629,64.363-12.258c11.955,11.989,16.801,21.872,39.858,25.124c23.058,3.251,38.71,16.64,27.837,43.888
						c-10.873,27.248,24.42,31.858,0.625,61.822c-9.23,11.623-29.092,20.566-33.854,17.447
						C2730.074,892.809,2740.063,872.603,2736.291,861.863z"/>
					<path style="fill:#2C2858;" d="M2608.014,885.791c0,0,8.791,22.217,15.549,28.053c-0.715-11.185,17.115-4.853,24.77-7.14
						c18.495-5.528,41.797-25.124,56.674-0.338c24.367-2.825,25.123-56.762,25.123-56.762
						c24.128,50.471,2.434,94.377-55.107,110.008C2637.111,969.91,2607.818,925.731,2608.014,885.791z"/>
					<g>
						<path style="fill:#F37A50;" d="M2726.357,851.907c-5.924,10.238-3.934,22.467,4.444,27.314
							c8.378,4.847,19.972,0.477,25.896-9.76c5.924-10.238,3.934-22.467-4.445-27.315
							C2743.873,837.3,2732.279,841.669,2726.357,851.907z"/>
						<g>
							<path style="fill:#DE623C;" d="M2740.586,872.862c-0.389-0.029-0.775-0.148-1.132-0.362
								c-5.114-3.073-7.438-7.913-6.22-12.946c1.248-5.153,5.829-9.137,10.893-9.471c1.426-0.093,2.656,0.985,2.751,2.411
								c0.095,1.426-0.985,2.656-2.41,2.751c-2.774,0.184-5.501,2.61-6.206,5.527c-0.68,2.802,0.69,5.393,3.857,7.295
								c1.224,0.735,1.619,2.324,0.884,3.549C2742.48,872.483,2741.53,872.935,2740.586,872.862z"/>
						</g>
					</g>
					<g>
						<path style="fill:#DE623C;" d="M2663.274,922.057c-1.474,0.688-3.001,1.23-4.585,1.627
							c-11.682,2.934-21.875-3.254-22.304-3.519c-1.323-0.819-1.733-2.557-0.915-3.881c0.818-1.322,2.551-1.732,3.874-0.918l0,0
							c0.086,0.052,8.683,5.21,18.024,2.837c6.088-1.546,11.276-5.964,15.424-13.129c0.779-1.348,2.504-1.808,3.852-1.028
							c1.347,0.78,1.807,2.504,1.027,3.852C2673.746,914.681,2668.916,919.426,2663.274,922.057z"/>
					</g>
				</g>
			</g>
			<polygon style="fill:#FFFFFF;" points="2697.533,994.028 2733.523,1019.448 2752.758,965.522 2742.912,952.733 			"/>
			<polygon style="fill:#FFFFFF;" points="2697.533,994.028 2675.385,1023.563 2646.513,980.034 2652.568,965.073 			"/>
		</g>
		<g id="с_16_">
			<path id="с_23_" style="fill:#768FDB;" d="M2237.864,1918.827h-1.058c-8.564,0-15.507-6.943-15.507-15.507v-265.168h32.071
				v265.168C2253.371,1911.885,2246.429,1918.827,2237.864,1918.827z"/>
			<path id="с_22_" style="fill:#768FDB;" d="M2350.385,1918.827h-1.057c-8.564,0-15.508-6.943-15.508-15.507v-265.168h32.072
				v265.168C2365.893,1911.885,2358.949,1918.827,2350.385,1918.827z"/>
			<path id="с_21_" style="fill:#768FDB;" d="M2513.538,1903.832c0,8.281-7.179,14.995-16.036,14.995l0,0
				c-8.855,0-16.035-6.714-16.035-14.995v-265.68h32.071V1903.832z"/>
			<path id="с_20_" style="fill:#768FDB;" d="M2610.553,1918.827h-1.059c-8.563,0-15.506-6.943-15.506-15.507v-265.168h32.07
				v265.168C2626.059,1911.885,2619.117,1918.827,2610.553,1918.827z"/>
			<path id="с_19_" style="fill:#95A6DB;" d="M2432.6,1216.499v338.098c0,3.847-3.119,6.966-6.967,6.966h-209.627
				c-21.15,0-38.295,17.146-38.295,38.295l0,0c0,21.15,17.145,38.295,38.295,38.295H2432.6h38.295
				c21.149,0,38.295-17.145,38.295-38.295v-38.295v-345.063c0-21.149-17.146-38.294-38.295-38.294h-0.001
				C2449.744,1178.205,2432.6,1195.35,2432.6,1216.499z"/>
			<rect id="с_18_" x="2470.894" y="1178.205" style="fill:#95A6DB;" width="165.739" height="389.568"/>
			<path id="с_17_" style="fill:#768FDB;" d="M2598.338,1216.499v338.098c0,3.847-3.119,6.966-6.966,6.966h-209.628
				c-21.148,0-38.295,17.146-38.295,38.295l0,0c0,21.15,17.146,38.295,38.295,38.295h216.594h38.295
				c21.149,0,38.295-17.145,38.295-38.295v-38.295v-345.063c0-21.149-17.146-38.294-38.295-38.294l0,0
				C2615.482,1178.205,2598.338,1195.35,2598.338,1216.499z"/>
		</g>
		<g id="c_35_">
			<path style="fill:#CFDAFF;" d="M2336.854,1163.924c-42.24,12.832-63.265,101.759-81.25,194.84
				c-24.299,31.896-50.358,49.414-88.445,87.022c25.809,5.846,53.121-1.002,53.121-1.002s70.17,0.6,100.612-65.743
				c6.968-15.183,9.342-45.734,13.29-59.314C2335.914,1277.161,2336.854,1163.924,2336.854,1163.924z"/>
			<path style="fill:#F37A50;" d="M2089.756,1872.975l-38.045,9.64l-15.539-33.89c1.616-1.194,4.109-23.721,5.637-40.867
				l61.409,8.47C2100.207,1833.629,2095.133,1856.254,2089.756,1872.975z"/>
			<g>
				<g>
					<path style="fill:#201D40;" d="M2022.617,1892.952c0,0-13.156-22.119-29.827-23.513c0,0-31.458,1.804-42.492,15.033
						c-3.466,4.154-2.134,13.021-0.763,18.699c0.855,3.543,3.86,7.391,13.158,10.316c13.732,4.32,32.255,6.967,66.377-1.879
						c40.936-10.611,47.469-6.241,62.598-11.115c15.68-5.053,10.641-24.218,6.363-42.884
						C2098.031,1857.61,2086.621,1880.453,2022.617,1892.952z"/>
				</g>
				<g>
					<g>
						<path style="fill:#2C2858;" d="M2035.141,1845.41c0,0-18.27,11.066-42.159,16.55c-13.365,3.069-48.991,9.979-43.255,33.731
							c0.855,3.545,3.86,7.392,13.158,10.316c13.733,4.32,32.256,6.967,66.377-1.878c40.936-10.611,47.469-6.241,62.598-11.116
							c15.68-5.051,8.443-26.805,4.166-45.471l0,0c-0.387,4.736-2.58,17.17-31.021,28.306
							C2056.514,1879.174,2063.451,1841.73,2035.141,1845.41z"/>
					</g>
				</g>
				<g>
					<path style="fill:#494C7F;" d="M2040.459,1874.027c-1.363-0.09-2.572-1.047-2.92-2.445
						c-2.889-11.617-14.896-12.438-15.404-12.473c-1.775-0.101-3.143-1.621-3.047-3.398c0.094-1.776,1.6-3.143,3.377-3.055
						c5.967,0.281,18.096,4.3,21.346,17.367c0.431,1.73-0.624,3.484-2.355,3.914
						C2041.121,1874.021,2040.785,1874.049,2040.459,1874.027z"/>
				</g>
				<g>
					<path style="fill:#494C7F;" d="M2025.457,1880.041c-1.364-0.092-2.572-1.049-2.92-2.445
						c-2.891-11.617-14.896-12.438-15.405-12.473c-1.774-0.102-3.142-1.622-3.048-3.398c0.096-1.777,1.602-3.143,3.379-3.056
						c5.966,0.282,18.094,4.3,21.344,17.366c0.432,1.732-0.623,3.486-2.354,3.916
						C2026.117,1880.034,2025.783,1880.063,2025.457,1880.041z"/>
				</g>
			</g>
			<path style="fill:#F37A50;" d="M2238.377,1887.305l-37.272,12.292l-17.886-32.712c1.529-1.306,6.883-25.099,7.2-42.31l57.4,5.275
				C2246.033,1847.32,2242.564,1870.247,2238.377,1887.305z"/>
			<path style="fill:#201D40;" d="M2300.242,1463c-84.981,15.523-205.676,70.57-217.582,83.092
				c-24.591,25.867-36.633,114.83-48.23,273.283l74.373,4.963c27.451-123.781,53.279-177.75,57.495-228.021
				c0,0,65.174,4.508,163.242-33.336c48.343-18.656,98.722-40.422,84.222-84.097C2402.209,1444.088,2381.271,1448.2,2300.242,1463z"
				/>
			<path style="fill:#2C2858;" d="M2395.291,1470.402c-70.605,7.295-164.779,88.086-176.686,100.607
				c-24.591,25.865-27.688,114.198-39.285,272.651l74.016,6.826c11.984-82.09,47.012-176.145,46.91-236.418
				c0,0,66.253-14.361,168.809-37.428c56.1-12.617,72.934-21.308,83.664-57.942c3.651-12.464,8.6-41.341,3.001-47.784
				C2530.947,1442.404,2462.121,1463.497,2395.291,1470.402z"/>
			<g>
				<g>
					<path style="fill:#201D40;" d="M2172.81,1911.957c0,0-14.679-21.14-31.407-21.356c0,0-31.253,4.012-41.329,17.984
						c-3.165,4.389-1.213,13.139,0.555,18.706c1.103,3.475,4.371,7.102,13.852,9.364c14.003,3.344,32.665,4.682,66.081-6.543
						c40.086-13.465,46.912-9.566,61.659-15.492c15.286-6.143,8.911-24.906,3.331-43.225
						C2245.551,1871.396,2235.775,1894.985,2172.81,1911.957z"/>
				</g>
				<g>
					<g>
						<path style="fill:#2C2858;" d="M2181.958,1863.65c0,0-17.446,12.324-40.891,19.475c-13.116,4.001-48.168,13.401-40.774,36.691
							c1.104,3.476,4.371,7.102,13.852,9.365c14.003,3.343,32.665,4.681,66.08-6.544c40.088-13.465,46.912-9.566,61.66-15.492
							c15.285-6.142,6.537-27.333,0.957-45.652l0,0c-0.053,4.752-1.365,17.309-28.953,30.418
							C2205.653,1895.826,2209.939,1857.988,2181.958,1863.65z"/>
					</g>
				</g>
				<g>
					<path style="fill:#494C7F;" d="M2195.525,1893.063c-1.363-0.092-2.572-1.049-2.92-2.445
						c-2.89-11.617-14.896-12.438-15.404-12.473c-1.775-0.102-3.143-1.621-3.048-3.398s1.601-3.143,3.378-3.055
						c5.967,0.281,18.096,4.299,21.346,17.366c0.43,1.731-0.625,3.485-2.355,3.915
						C2196.187,1893.057,2195.852,1893.084,2195.525,1893.063z"/>
				</g>
				<g>
					<path style="fill:#494C7F;" d="M2180.522,1899.075c-1.364-0.091-2.572-1.048-2.919-2.444
						c-2.891-11.618-14.896-12.439-15.405-12.473c-1.775-0.104-3.143-1.621-3.048-3.399c0.096-1.777,1.602-3.143,3.378-3.055
						c5.967,0.281,18.096,4.299,21.346,17.365c0.431,1.732-0.624,3.484-2.356,3.916
						C2181.184,1899.068,2180.848,1899.097,2180.522,1899.075z"/>
				</g>
			</g>
			<g>
				<polygon id="v-2_6_" style="fill:#F37A50;" points="2441.912,1092.754 2441.879,1092.754 2413.709,1092.857 2407.328,1159.392 
					2440.213,1176.756 2475.279,1159.59 2469.612,1092.857 				"/>
				<g>
					<g>
						<path style="fill:#2C2858;" d="M2444.595,1083.54c24.79,6.962,43.056-23.227,43.056-23.227
							c15.873-0.13,15.682-15.948,15.682-15.948c7.693-1.099,18.709-7.445,17.758-21.947c-0.807-12.277-12.525-13.543-11.846-27.669
							c0.547-11.334,12.83-37.397-22.414-45.087c0,0,2.371-20.854-18.221-29.154c-25.248-10.175-34.193,4.553-46.12,5.579
							c-13.32,1.146-39.053-14.971-47.301,14.158c0,0-18.38-2.442-28.886,9.566c-9.789,11.188-7.678,27.779-3.32,34.438
							c0,0-15.466,2.702-21.02,16.084c-3.725,8.973-1.978,21.595,6.395,28.9c5.328,4.648,10.887,5.872,10.887,5.872
							c5.846,1.918,3.705,18.037,8.503,21.969c7.7,6.31,16.362,11.27,25.294,15.518L2444.595,1083.54z"/>
						<path style="fill:#F37A50;" d="M2490.779,1044.273c-1.621,46.637-38.164,86.834-74.793,85.56
							c-36.629-1.273-59.473-43.536-57.852-90.174c1.623-46.636,32.631-83.411,69.26-82.137
							C2464.023,958.797,2492.401,997.636,2490.779,1044.273z"/>
						<path d="M2379.457,1056.623c-0.912,3.4-4.406,5.418-7.807,4.506c-3.4-0.91-5.418-4.406-4.507-7.806s4.406-5.417,7.807-4.507
							C2378.35,1049.729,2380.367,1053.223,2379.457,1056.623z"/>
						<path d="M2432.146,1054.676c-0.986,3.682-4.77,5.865-8.451,4.879c-3.681-0.986-5.865-4.769-4.879-8.451
							c0.986-3.68,4.771-5.864,8.451-4.878C2430.949,1047.212,2433.133,1050.996,2432.146,1054.676z"/>
						<path style="fill:#DE623C;" d="M2399.826,1056.383c-5.805,9.313-13.162,20.678-13.162,20.678s3.418,9.811,16.365,9.932
							c-5.483-2.259-10.907-5.94-8.683-13.248C2396.571,1066.436,2399.826,1056.383,2399.826,1056.383z"/>
						<g>
							<path style="fill:#2C2858;" d="M2438.27,1041.566c0.23-0.083,0.453-0.194,0.668-0.334c1.469-0.963,1.879-2.934,0.916-4.402
								c-2.629-4.012-10.016-10.74-19.156-7.495c-1.658,0.616-2.52,2.407-1.933,4.061c0.588,1.654,2.405,2.521,4.062,1.934
								c6.768-2.403,11.659,4.912,11.707,4.986C2435.356,1041.572,2436.916,1042.055,2438.27,1041.566z"/>
						</g>
						<g>
							<path style="fill:#2C2858;" d="M2377.723,1039.854c0.43-0.154,0.823-0.422,1.136-0.796c0.937-1.124,0.785-2.796-0.339-3.733
								c-0.178-0.146-4.381-3.588-9.662-2.721c-3.607,0.594-6.705,2.961-9.205,7.037c-0.765,1.248-0.373,2.879,0.874,3.646
								c1.248,0.764,2.88,0.373,3.646-0.875c1.658-2.705,3.525-4.246,5.545-4.578c2.871-0.472,5.385,1.543,5.408,1.563
								C2375.875,1040.021,2376.867,1040.162,2377.723,1039.854z"/>
						</g>
						<path style="fill:#2C2858;" d="M2346.603,993.134l78.361-51.404l81.161,58.068l-20.41,61.772
							c2.177-29.631-17.195-22.885-25.178-32.846c-8.092-10.098-10.141-24.271-34.058-15.619c0,0-16.089-15.058-27.919,0.969
							c-9.147,12.392-18.432,8.352-28.174,7.608c-11.49-0.878-10.446,10.571-17.337,9.169L2346.603,993.134z"/>
						<g>
							<path style="fill:#F37A50;" d="M2480.467,1040.605c-7.18,8.299-7.492,19.789-0.701,25.664
								c6.793,5.875,18.117,3.908,25.297-4.391c7.179-8.3,7.492-19.789,0.7-25.664S2487.646,1032.305,2480.467,1040.605z"/>
							<g>
								<path style="fill:#DE623C;" d="M2489.788,1062.176c-0.349-0.095-0.681-0.269-0.968-0.527
									c-4.125-3.69-5.402-8.504-3.416-12.879c2.033-4.479,6.9-7.313,11.574-6.736c1.314,0.164,2.25,1.36,2.087,2.676
									c-0.162,1.315-1.36,2.25-2.675,2.087c-2.561-0.316-5.467,1.423-6.617,3.958c-1.105,2.436-0.309,5.034,2.246,7.318
									c0.987,0.884,1.072,2.401,0.188,3.389C2491.582,1062.16,2490.637,1062.407,2489.788,1062.176z"/>
							</g>
						</g>
						<path style="fill:#FFFFFF;" d="M2388.708,1104.721c-1.27-1.361-0.315-3.572,1.546-3.562c4.73,0.028,12.535-0.089,19.901-0.925
							c7.366-0.836,14.998-2.473,19.603-3.559c1.812-0.428,3.237,1.512,2.305,3.123c-2.867,4.952-9.08,12.68-20.371,13.962
							C2400.399,1115.043,2392.613,1108.904,2388.708,1104.721z"/>
						<g>
							<g>
								<path d="M2423.576,1068.57c-8.548,0-15.882-5.275-17.086-12.811c-0.669-4.182,0.619-8.399,3.625-11.873
									c2.922-3.377,7.138-5.653,11.871-6.41c4.734-0.756,9.449,0.092,13.277,2.39c3.94,2.364,6.479,5.972,7.146,10.153
									c1.358,8.5-5.594,16.702-15.496,18.285C2425.789,1068.484,2424.672,1068.57,2423.576,1068.57z M2425.361,1041.207
									c-0.905,0-1.822,0.072-2.743,0.219c-3.806,0.609-7.171,2.412-9.478,5.076c-2.221,2.568-3.18,5.631-2.701,8.627
									c1.011,6.321,8.117,10.459,15.843,9.226c7.726-1.236,13.188-7.383,12.179-13.704c-0.479-2.997-2.346-5.608-5.256-7.355
									C2430.914,1041.922,2428.199,1041.207,2425.361,1041.207z"/>
							</g>
							<g>
								<path d="M2375.377,1070.865c-1.18,0-2.373-0.099-3.566-0.299c-4.792-0.801-9.047-3.138-11.982-6.58
									c-3.02-3.541-4.293-7.822-3.585-12.053c1.438-8.599,10.761-14.23,20.782-12.555c4.791,0.801,9.047,3.139,11.982,6.58
									c3.02,3.542,4.293,7.822,3.584,12.053l0,0c-0.707,4.231-3.303,7.865-7.311,10.23
									C2382.356,1069.971,2378.931,1070.865,2375.377,1070.865z M2373.475,1043.082c-6.666,0-12.346,3.889-13.286,9.512
									c-0.51,3.047,0.444,6.17,2.685,8.797c2.324,2.727,5.732,4.585,9.597,5.23c3.866,0.648,7.691,0,10.777-1.822
									c2.974-1.756,4.892-4.4,5.4-7.447l0,0c0.509-3.045-0.444-6.169-2.685-8.797c-2.324-2.726-5.732-4.584-9.598-5.23
									C2375.389,1043.161,2374.422,1043.082,2373.475,1043.082z"/>
							</g>
							<g>
								<rect x="2390.135" y="1050.891" width="18.212" height="4"/>
							</g>
							<g>
								<path d="M2440.436,1052.336c-1.094,0-1.986-0.879-2-1.975c-0.014-1.039,0.77-1.904,1.783-2.014
									c2.008-0.401,25.394-7.49,40.728-12.189c1.056-0.323,2.175,0.27,2.499,1.326c0.323,1.057-0.271,2.175-1.326,2.498
									c-40.247,12.334-41.309,12.349-41.658,12.353C2440.452,1052.336,2440.443,1052.336,2440.436,1052.336z M2440.41,1048.336
									c-0.036,0-0.091,0-0.162,0.008C2440.302,1048.34,2440.355,1048.336,2440.41,1048.336z"/>
							</g>
						</g>
					</g>
				</g>
			</g>
			<g id="v_6_">
				<path style="fill:#E62552;" d="M2555.707,1472.197c0,0-58.951,6.082-114.195,6.448c-55.244-0.406-114.195-11.124-114.195-11.124
					s7.424-101.454,6.667-140.416c-1.075-44.736,2.868-104.059,2.868-163.182c0,0,39.184-6.309,61.289-9.033
					c3.593-0.445,6.731-0.789,9.185-1.004c0,0,12.595,26.424,67.472,0c2.883-0.287,6.453-0.271,10.443-0.039
					c23.054,1.377,60.183,10.076,60.183,10.076c0,58.965,2.382,116.749,1.585,161.494
					C2549.462,1365.326,2555.707,1472.197,2555.707,1472.197z"/>
			</g>
			<path style="fill:#FFFFFF;" d="M2395.882,1155.174c-1.036,5.682-46.025,315.9-46.025,315.9l-22.54-3.553l9.535-303.598
				C2336.852,1163.924,2363.67,1155.963,2395.882,1155.174z"/>
			<path style="fill:#FFFFFF;" d="M2545.423,1163.924c0,0-22.625-7.19-60.183-10.076c0,2.886-25.266,462.778-25.266,462.778
				l116.943-8.942L2545.423,1163.924z"/>
			<g id="c_36_">
				<path style="fill:#F37A50;" d="M2410.367,1291.733l-13.375-7.749c0,0-3.702-18.971-25.18-19.427
					c2.459,7.96,6.003,19.427,6.003,19.427s-10.571,8.207-35.644-5.839c-24.51-5.507-14.04,12.362-22.162,13.646
					c-11.986,1.893,8.736,25.447,33.209,29.051c31.666,4.664,35.424-1.818,35.424-1.818l17.918,6.262L2410.367,1291.733z"/>
				<path id="c_37_" style="fill:#CFDAFF;" d="M2534.129,1312c-44.703-3.123-120.96-25.203-120.96-25.203
					c-12.204,18.719-8.828,43.58-8.828,43.58c69.421,60.862,173.9,80.538,205.957,65.889
					c29.267-13.373,8.606-191.529-64.876-232.342l-2.547,0.24C2517.684,1206.789,2534.129,1312,2534.129,1312z"/>
			</g>
			<path style="fill:#C4204A;" d="M2485.24,1153.848v0.008c-3.816,6.373-9.219,11.193-16.834,15.026
				c-12.061,6.085-28.452,8.665-38.545,7.877c-7.99-0.63-16.854-3.89-22.533-8.391c-6.03-4.787-8.653-10.888-9.188-13.476
				c3.593-0.445,7.283-1.002,9.736-1.218c0,0,12.043,26.638,66.92,0.214C2477.68,1153.6,2481.25,1153.616,2485.24,1153.848z"/>
		</g>
		<g>
			<path style="fill:#4661B3;" d="M2782.624,1478.646H778.697c-11.333,0-20.52-9.187-20.52-20.521l0,0
				c0-11.332,9.187-20.52,20.52-20.52h2003.927c11.333,0,20.521,9.188,20.521,20.52l0,0
				C2803.145,1469.459,2793.957,1478.646,2782.624,1478.646z"/>
			<path style="fill:#4661B3;" d="M832.896,1918.827h-0.643c-9.703,0-17.569-7.866-17.569-17.568v-417.25
				c0-9.703,7.866-17.568,17.569-17.568h0.643c9.703,0,17.569,7.865,17.569,17.568v417.25
				C850.465,1910.961,842.599,1918.827,832.896,1918.827z"/>
			<path style="fill:#4661B3;" d="M2757.137,1918.827h-0.644c-9.702,0-17.569-7.866-17.569-17.568v-417.25
				c0-9.703,7.867-17.568,17.569-17.568h0.644c9.703,0,17.568,7.865,17.568,17.568v417.25
				C2774.705,1910.961,2766.84,1918.827,2757.137,1918.827z"/>
		</g>
		<g>
			<path style="fill:#0E6A41;" d="M2354.557,1437.976h-236.295l-46.643-148.301c-2.154-6.85,2.961-13.82,10.142-13.82h214.006
				c4.643,0,8.749,3.013,10.142,7.441L2354.557,1437.976z"/>
			<path style="fill:#3F964F;" d="M2336.633,1437.976h-236.295l-46.642-148.301c-2.154-6.85,2.961-13.82,10.142-13.82h214.006
				c4.643,0,8.748,3.013,10.141,7.441L2336.633,1437.976z"/>
			<path style="fill:#55AB65;" d="M2197.521,1359.838c2.603,9.16-2.031,18.502-10.35,20.867
				c-8.319,2.362-17.173-3.148-19.774-12.309c-2.604-9.161,2.03-18.503,10.349-20.867
				C2186.064,1345.166,2194.918,1350.677,2197.521,1359.838z"/>
			<path style="fill:#0E6A41;" d="M2488.799,1422.492h-152.166v15.113h167.279l0,0
				C2503.912,1429.258,2497.146,1422.492,2488.799,1422.492z"/>
		</g>
		<g>
			<path style="fill:#F37A50;" d="M2600.935,1284.686c10.565-5.049,22.376-8.022,25.979-23.111c0,0,28.601-7.604,58.559-14.266
				c0,0-36.477-33.431-36.506-33.42c-11.855,4.012-33.735,18.794-47.127,19.129c-3.479,0.088-6.971-0.008-10.462,0.039
				c-8.509-0.068-17.372-1.072-26.491,5.646c-35.23,25.955-49.014,21.549-50.441,24.547c-1.182,4.675,8.299,13.601,26.248,4.615
				c17.369-8.693,26.593-8.832,26.593-8.832s-0.293,15.163,5.731,19.511C2575.753,1280.519,2588.584,1290.588,2600.935,1284.686z"/>
			<path style="fill:#CFDAFF;" d="M2635.482,1212.646c0,0,93.502-45.09,164.578-59.685c-9.824-35.568,6.205-199.919,6.205-199.919
				s48.006,11.779,71.847,100.8c23.841,89.02-30.835,179.617-30.835,179.617s-147.412,40.969-200.131,25.979
				C2638.876,1257.086,2635.482,1212.646,2635.482,1212.646z"/>
		</g>
	</g>
	<g>
		<circle style="fill:#FFFFFF;" cx="1835.726" cy="1223.59" r="74.741"/>
		<path style="fill:#F5A3B7;" d="M1903.004,1223.59c0,37.156-30.121,67.278-67.277,67.278c-37.157,0-67.279-30.122-67.279-67.278
			H1903.004z"/>
		<path style="fill:#201D40;" d="M1910.091,1268.613h-139.825c-3.98,0-7.207-3.226-7.207-7.207l0,0c0-3.981,3.227-7.208,7.207-7.208
			h139.825c3.98,0,7.208,3.227,7.208,7.208l0,0C1917.299,1265.387,1914.071,1268.613,1910.091,1268.613z"/>
		<g>
			<path style="fill:#201D40;" d="M1715.49,1438.085c-0.639,0-1.287-0.099-1.928-0.307c-3.266-1.063-5.053-4.573-3.989-7.841
				l60.543-163.25c1.063-3.268,4.575-5.054,7.841-3.989c3.268,1.063,5.054,4.573,3.99,7.841l-60.543,163.25
				C1720.549,1436.416,1718.111,1438.085,1715.49,1438.085z"/>
		</g>
		<g>
			<path style="fill:#201D40;" d="M1961.984,1438.085c-2.589,0-5.006-1.628-5.888-4.214l-63.426-163.25
				c-1.108-3.25,0.628-6.786,3.88-7.896c3.248-1.108,6.786,0.628,7.896,3.88l63.426,163.25c1.108,3.25-0.629,6.786-3.881,7.896
				C1963.328,1437.978,1962.65,1438.085,1961.984,1438.085z"/>
		</g>
		<g>
			<path style="fill:#201D40;" d="M1840.178,1437.689c-3.436,0-6.221-2.785-6.221-6.221v-170.063c0-3.436,2.785-6.221,6.221-6.221
				s6.221,2.785,6.221,6.221v170.063C1846.398,1434.904,1843.613,1437.689,1840.178,1437.689z"/>
		</g>
		<g>
			
				<rect x="1854.758" y="1089.76" transform="matrix(0.8667 0.4988 -0.4988 0.8667 822.8882 -781.7345)" style="fill:#FFFFFF;" width="39.125" height="118.522"/>
			<path style="fill:#FFFFFF;" d="M1917.704,1110.733l-32.112-18.051c-3.942-2.217-5.342-7.209-3.126-11.151l0.364-0.648
				c2.216-3.943,7.209-5.342,11.151-3.125l32.112,18.051c3.943,2.215,5.342,7.209,3.126,11.151l-0.364,0.647
				C1926.639,1111.55,1921.646,1112.949,1917.704,1110.733z"/>
		</g>
		<path style="fill:#F5A3B7;" d="M1816.401,1192.605c0,2.785-2.259,5.045-5.046,5.045s-5.047-2.26-5.047-5.045
			c0-2.788,2.26-5.047,5.047-5.047S1816.401,1189.817,1816.401,1192.605z"/>
		<path style="fill:#F5A3B7;" d="M1838.647,1166.915c0,1.613-1.308,2.921-2.921,2.921s-2.922-1.308-2.922-2.921
			c0-1.614,1.309-2.921,2.922-2.921S1838.647,1165.301,1838.647,1166.915z"/>
		<path style="fill:#F5A3B7;" d="M1895.258,1129.619c0,1.613-1.309,2.922-2.922,2.922s-2.921-1.309-2.921-2.922
			s1.308-2.922,2.921-2.922S1895.258,1128.006,1895.258,1129.619z"/>
		<path style="fill:#F5A3B7;" d="M1882.674,1200.663c0,1.614-1.308,2.922-2.921,2.922c-1.614,0-2.921-1.308-2.921-2.922
			c0-1.613,1.307-2.921,2.921-2.921C1881.366,1197.742,1882.674,1199.05,1882.674,1200.663z"/>
		<path style="fill:#F5A3B7;" d="M1833.957,1210.142c0,2.37-1.922,4.292-4.291,4.292c-2.371,0-4.293-1.922-4.293-4.292
			c0-2.37,1.922-4.292,4.293-4.292C1832.035,1205.85,1833.957,1207.771,1833.957,1210.142z"/>
		<path style="fill:#F5A3B7;" d="M1874.247,1150.172c0,2.406-1.951,4.358-4.358,4.358c-2.406,0-4.357-1.951-4.357-4.358
			c0-2.408,1.951-4.359,4.357-4.359C1872.296,1145.813,1874.247,1147.764,1874.247,1150.172z"/>
		<path style="fill:#F5A3B7;" d="M1864.155,1192.605c0,2.912-2.362,5.274-5.276,5.274c-2.913,0-5.275-2.361-5.275-5.274
			c0-2.914,2.362-5.277,5.275-5.277C1861.793,1187.328,1864.155,1189.691,1864.155,1192.605z"/>
	</g>
	<g>
		<g>
			<g>
				<path style="fill:#FFFFFF;" d="M1309.196,1414.494l-62.14-118.811v-89.483l0,0c3.042,0,5.509-2.465,5.509-5.508v-2.781
					c0-3.041-2.467-5.508-5.509-5.508h-33.048c-3.042,0-5.508,2.467-5.508,5.508v2.781c0,3.043,2.466,5.508,5.508,5.508l0,0v89.483
					l-62.141,118.811c-5.229,9.998,1.061,22.706,11.238,22.706h67.427h67.427C1308.136,1437.2,1314.425,1424.492,1309.196,1414.494z
					"/>
				<path style="fill:#3F964F;" d="M1267.106,1352.711h-73.149l-28.999,55.445c-4.358,8.334,0.884,18.926,9.368,18.926h56.206
					h56.206c8.483,0,13.726-10.592,9.367-18.926L1267.106,1352.711z"/>
			</g>
			<path style="fill:#F37A50;" d="M1243.377,1192.404h-25.861v-6.693c0-3.345,2.711-6.055,6.055-6.055h13.751
				c3.344,0,6.055,2.71,6.055,6.055V1192.404z"/>
		</g>
		<g>
			<g>
				<g>
					<path style="fill:#FFFFFF;" d="M1091.89,1341.915l-53.09-119.327v-43.083l0,0c2.599,0,4.706-2.856,4.706-6.378v-1.102
						c0-3.521-2.107-6.377-4.706-6.377h-28.235c-2.599,0-4.706,2.855-4.706,6.377v1.102c0,3.521,2.107,6.378,4.706,6.378l0,0v43.083
						l-53.091,119.327c-4.467,10.042,0.906,22.804,9.602,22.804h57.606h57.607
						C1090.985,1364.719,1096.358,1351.957,1091.89,1341.915z"/>
					<path style="fill:#3F964F;" d="M1063.029,1300.533h-78.792l-15.579,35.016c-3.723,8.369,0.756,19.01,8.003,19.01h48.02h48.02
						c7.249,0,11.728-10.641,8.003-19.01L1063.029,1300.533z"/>
				</g>
				<path style="fill:#8CBF95;" d="M1014.721,1286.129c0,3.601-2.92,6.523-6.522,6.523c-3.603,0-6.523-2.922-6.523-6.523
					c0-3.602,2.92-6.521,6.523-6.521C1011.801,1279.607,1014.721,1282.527,1014.721,1286.129z"/>
				<path style="fill:#8CBF95;" d="M1028.423,1267.588c0,2.064-1.675,3.739-3.741,3.739c-2.065,0-3.74-1.675-3.74-3.739
					c0-2.067,1.674-3.742,3.74-3.742C1026.748,1263.846,1028.423,1265.521,1028.423,1267.588z"/>
				<path style="fill:#8CBF95;" d="M1046.632,1295.291c0,2.066-1.675,3.74-3.74,3.74c-2.066,0-3.741-1.674-3.741-3.74
					c0-2.066,1.675-3.74,3.741-3.74C1044.958,1291.551,1046.632,1293.225,1046.632,1295.291z"/>
				<path style="fill:#8CBF95;" d="M1020.942,1246.976c0,2.066-1.675,3.74-3.74,3.74c-2.066,0-3.74-1.674-3.74-3.74
					c0-2.066,1.674-3.74,3.74-3.74C1019.267,1243.236,1020.942,1244.91,1020.942,1246.976z"/>
			</g>
			<path style="fill:#201D40;" d="M931.026,1437.357h174.523c12.285,0,22.243-9.959,22.243-22.242l0,0
				c0-12.285-9.958-22.244-22.243-22.244H931.026c-12.285,0-22.243,9.959-22.243,22.244l0,0
				C908.783,1427.398,918.741,1437.357,931.026,1437.357z"/>
			<path style="fill:#201D40;" d="M929.206,1406.561H941.4c0.885,0,1.603-0.719,1.603-1.604v-239.992
				c0-4.15-3.364-7.515-7.514-7.515h-0.371c-4.15,0-7.514,3.364-7.514,7.515v239.992
				C927.604,1405.842,928.321,1406.561,929.206,1406.561z"/>
			<path style="fill:#201D40;" d="M915.627,1201.389h153.991c3.78,0,6.844-3.064,6.844-6.845l0,0c0-3.78-3.064-6.844-6.844-6.844
				H915.627c-3.78,0-6.844,3.063-6.844,6.844l0,0C908.783,1198.324,911.847,1201.389,915.627,1201.389z"/>
			<path style="fill:#201D40;" d="M917.44,1195.25c0,9.453,7.663,17.115,17.115,17.115c9.453,0,17.115-7.662,17.115-17.115
				c0-9.453-7.663-17.115-17.115-17.115C925.103,1178.135,917.44,1185.797,917.44,1195.25z"/>
		</g>
		<g>
			<path style="fill:#F37A50;" d="M1183.065,1283.309h-25.861v-6.693c0-3.344,2.711-6.055,6.055-6.055h13.751
				c3.344,0,6.055,2.711,6.055,6.055V1283.309z"/>
			<g>
				<path style="fill:#FFFFFF;" d="M1240.549,1419.572l-55.623-92.246v-33.305l0,0c2.723,0,4.931-2.207,4.931-4.93v-0.852
					c0-2.724-2.208-4.932-4.931-4.932h-29.583c-2.723,0-4.931,2.208-4.931,4.932v0.852c0,2.723,2.208,4.93,4.931,4.93l0,0v33.305
					l-55.624,92.246c-4.68,7.762,0.95,17.628,10.059,17.628h60.355h60.356C1239.599,1437.2,1245.229,1427.334,1240.549,1419.572z"/>
				<path style="fill:#E62552;" d="M1202.873,1371.601h-65.478l-25.958,43.049c-3.902,6.471,0.792,14.694,8.385,14.694h50.312
					h50.311c7.594,0,12.287-8.224,8.384-14.694L1202.873,1371.601z"/>
			</g>
		</g>
		<g>
			<path style="fill:#F37A50;" d="M878.222,1242.307h-25.86v-6.693c0-3.345,2.711-6.055,6.055-6.055h13.751
				c3.344,0,6.054,2.71,6.054,6.055V1242.307z"/>
			<g>
				<path style="fill:#FFFFFF;" d="M936.729,1420.326l-56.43-95.234v-71.726l0,0c2.762,0,5.002-2.239,5.002-5.003v-1.055
					c0-2.762-2.24-5.002-5.002-5.002h-30.013c-2.762,0-5.001,2.24-5.001,5.002v1.055c0,2.764,2.24,5.003,5.001,5.003l0,0v71.726
					l-56.429,95.234c-4.748,8.014,0.963,18.2,10.205,18.2h61.231h61.23C935.765,1438.526,941.477,1428.34,936.729,1420.326z"/>
				<path style="fill:#F5A3B7;" d="M898.506,1370.803h-66.427l-26.334,44.443c-3.958,6.68,0.803,15.17,8.507,15.17h51.041h51.04
					c7.704,0,12.465-8.49,8.507-15.17L898.506,1370.803z"/>
			</g>
		</g>
	</g>
	<g>
		<g>
			<g>
				<path style="fill:#F37A50;" d="M1940.24,1238.557h-7.879c-2.961,0-5.361,2.4-5.361,5.361v13.24h18.602v-13.24
					C1945.602,1240.957,1943.201,1238.557,1940.24,1238.557z"/>
				<path style="fill:#FFFFFF;" d="M1951.449,1256.16h-30.297c-2.94,0-5.347,2.406-5.347,5.346v3.119
					c0,2.939,2.406,5.346,5.347,5.346h2.45v135.779c0,7.074,5.735,12.809,12.81,12.809s12.809-5.734,12.809-12.809v-135.779h2.229
					c2.939,0,5.346-2.406,5.346-5.346v-3.119C1956.795,1258.566,1954.389,1256.16,1951.449,1256.16z"/>
				<path style="fill:#2BBF86;" d="M1926.498,1344.287v60.627c0,5.414,4.389,9.802,9.803,9.802c5.413,0,9.802-4.388,9.802-9.802
					v-60.627H1926.498z"/>
			</g>
			<g>
				<path style="fill:#F37A50;" d="M2047.569,1238.557h-7.878c-2.962,0-5.361,2.4-5.361,5.361v13.24h18.6v-13.24
					C2052.93,1240.957,2050.53,1238.557,2047.569,1238.557z"/>
				<path style="fill:#FFFFFF;" d="M2059.715,1256.16h-30.297c-2.94,0-5.347,2.406-5.347,5.346v3.119
					c0,2.939,2.406,5.346,5.347,5.346h2.451v135.779c0,7.074,5.734,12.809,12.809,12.809s12.809-5.734,12.809-12.809v-135.779h2.229
					c2.94,0,5.346-2.406,5.346-5.346v-3.119C2065.061,1258.566,2062.655,1256.16,2059.715,1256.16z"/>
				<path style="fill:#2BBF86;" d="M2034.541,1334.351l0.224,70.563c0,5.414,4.389,9.802,9.802,9.802
					c5.414,0,9.802-4.388,9.802-9.802l-0.223-70.563H2034.541z"/>
			</g>
			<g>
				<path style="fill:#FFFFFF;" d="M2005.582,1256.16h-30.297c-2.94,0-5.347,2.406-5.347,5.346v3.119
					c0,2.939,2.406,5.346,5.347,5.346h2.45v135.779c0,7.074,5.735,12.809,12.81,12.809s12.809-5.734,12.809-12.809v-135.779h2.229
					c2.94,0,5.346-2.406,5.346-5.346v-3.119C2010.928,1258.566,2008.522,1256.16,2005.582,1256.16z"/>
				<path style="fill:#FF5566;" d="M1980.854,1313.795l-0.224,91.119c0,5.414,4.389,9.802,9.803,9.802s9.802-4.388,9.802-9.802
					l0.223-91.119H1980.854z"/>
				<path style="fill:#F37A50;" d="M1994.484,1237.225h-7.879c-2.961,0-5.361,2.4-5.361,5.361v13.24h18.602v-13.24
					C1999.846,1239.625,1997.445,1237.225,1994.484,1237.225z"/>
			</g>
		</g>
		<path style="fill:#201D40;" d="M2095.717,1290.467h-216c-1.476,0-2.672-1.197-2.672-2.674l0,0c0-1.476,1.196-2.672,2.672-2.672
			h216c1.477,0,2.674,1.196,2.674,2.672l0,0C2098.391,1289.27,2097.193,1290.467,2095.717,1290.467z"/>
		<rect x="1891.857" y="1290.467" style="fill:#201D40;" width="4.679" height="137.113"/>
		<rect x="2078.898" y="1290.467" style="fill:#201D40;" width="4.678" height="137.113"/>
		<path style="fill:#201D40;" d="M2090.705,1437.605h-205.976c-2.769,0-5.013-2.244-5.013-5.013l0,0
			c0-2.768,2.244-5.013,5.013-5.013h205.976c2.768,0,5.012,2.244,5.012,5.013l0,0
			C2095.717,1435.361,2093.473,1437.605,2090.705,1437.605z"/>
	</g>
</g>
</svg>
